<mxfile host="app.diagrams.net" agent="Mozilla/5.0 (Windows NT 10.0; Win64; x64) AppleWebKit/537.36 (KHTML, like Gecko) Chrome/131.0.0.0 Safari/537.36" version="24.9.1">
  <diagram id="enc7fqqmi0JnYuI9x9g0" name="Page-1">
    <mxGraphModel dx="3050" dy="1150" grid="1" gridSize="10" guides="1" tooltips="1" connect="1" arrows="1" fold="1" page="1" pageScale="1" pageWidth="850" pageHeight="1100" math="0" shadow="0">
      <root>
        <mxCell id="0" />
        <mxCell id="1" parent="0" />
        <mxCell id="LNurGvQAs1YCEIJH9-UW-43" value="" style="group" vertex="1" connectable="0" parent="1">
          <mxGeometry x="360" y="400.00000000000006" width="283.31916666666666" height="170" as="geometry" />
        </mxCell>
        <mxCell id="LNurGvQAs1YCEIJH9-UW-40" value="" style="sketch=0;aspect=fixed;pointerEvents=1;shadow=0;dashed=0;html=1;strokeColor=none;labelPosition=center;verticalLabelPosition=bottom;verticalAlign=top;align=center;fillColor=#00188D;shape=mxgraph.azure.laptop;fontColor=#0000CC;" vertex="1" parent="LNurGvQAs1YCEIJH9-UW-43">
          <mxGeometry width="283.3191666666667" height="170" as="geometry" />
        </mxCell>
        <mxCell id="LNurGvQAs1YCEIJH9-UW-41" value="" style="shape=image;verticalLabelPosition=bottom;labelBackgroundColor=default;verticalAlign=top;aspect=fixed;imageAspect=0;image=data:image/png,iVBORw0KGgoAAAANSUhEUgAABU0AAAKGCAYAAAB+7rqsAAAAAXNSR0IArs4c6QAAAARnQU1BAACxjwv8YQUAAAAJcEhZcwAADsMAAA7DAcdvqGQAAL+dSURBVHhe7P19fFT1nf//PydcK+IEURPFi1joEtC2xLUS6kUdpH6KqyvJgpK0diFxty1uKwRrLZG2GGpbk6j9od22Cf5qN6GVT0K3FvqxyNiqTXBdY62SULHGCppYKRmvABE43z/OOTPnvOcqFxMI8LjfbuemvM/7XMzknLl4zev9egckWQIAAAAAAACA48zJJwf1yU/O1MnBoAJZWQoEApKkLLMjAAAAAAAAABwP3n47ojf/1q2Dhw752gmaAgAAAAAAADhu/en5Nr0dieiQJ3BK0BQAAAAAAADAce3113fIOnRIlmVXMiVoCgAAAAAAAOC4tuutN2VJBE0BAAAAAAAAQE5tU8tieD4AAAAAAAAASJIOHDggyc4yFUFTAAAAAAAAAPAjaAoAAAAAAADguOeUM5UImgIAAAAAAACAH0FTAAAAAAAAAPAgaAoAAAAAAAAAHgHftFC9FCjYrJMuzDWbPSL64Nel+qCr01wBAAAAAAAAAEPOP8+dpxEjRiorK6s/QdMKnbiiWqeMN9v9Dm6t1+s/KTebAQAAAAAAAGDI8QZNBzQ8/+CH+7Tvff/ywSF73bDhZm8AAAAAAAAAGPoGFDT9oLVSf1s+xrdEtpu9Bt/0/2hQS2eP9n5oybLsZW9Pl9oeWqzpZuc17bIsS+1rzBVDS9nGLvuxvNui5ebK41BdhyXLaleduQIAAADAYRGYtkHjbt+rM+61dHbtXo3/0gaNGGf2Ao4nFTqh0tLZ9yZezqzcrGHmJgCOGgMKmh55c7T6mR61/aBEhROlri0b1fizRjX+plVdytH0z69WW9dmVUwytxvqlqvs0hxp3z5p7HRdfYe5vu/yFlSp6YV2bVhirhl6pv9HnVo6WwiQAgAAAENEoLBdp900R8HTR2u4JGWN1th/mKPc29s1isApjlv5Gj7BbIsZNiHXvl+AjMhT1qfadcrdnuB8bY9OOMvsh0wZUNB0VGGVTlu117cEJ5u9Bk/Fbxu0+B+D2retUaX52Trv0qtVemOpSufM1HnZBap8PCLlhFS1rlp57kaLpioQCGjqIv++hpQ7rtb0sVLn42F1arQKi1bHzr+fim5arKLzczXaXDEELf5ymQrPDfrayvMDCgSmiiq5AAAAwOG2XCd+Nl+jzGZJGpOvcZ9lbByOdx1685aAXosu9YqYXYCB+kSTTp2XrxNHmCswWPoRNN0ny61bOmK0Rp/oX0Y5e9y/d5BfImY3aPHsoPReq2quKVXjy2aH57Tq3+5Xa2Sf9k3IV4m5esjK0+qiQo1Wp567p0atL0v6xBxVzTb7AQAAAMBhkBtKmU06ZnKof0OQr/2Jntq6Xc8/9RPN8a34un6xdbue3/rfqvC1I941Wv3Udj2/9VmtvtZcl9ic+5/V81u366n7rzFX9Zq7j7gl7m+JgXPuh+hz694f8ctA/qa67b8T78Npd5df3OZfHb2P+3QO5mOKqWjyPKamr/tXGucStz4h9x5J93ri9ku+74omb7vRP8FjkTznnGx9H4z8xHSNkrTnD8tiAfql2dqzw99vxI17dWZly4DKp7h/h7i/92GR4Brv5/M35/5ne3lNJtaPoOn92vPg/fpbc6OztOo9SXq/Q7uibfXa1bzM3DCjQjcVKk9S5JkmVcYFTB0vV2pm9hhln3W1VrltcTVN81RSu1mv9OyN1kO19vaoPUE91On/0aC2HT3+fhurVeIb/p+nktoNan/Ls79k9VUTmVShmedLerlV928Kq/I3z0nKU2hJmdkzwWNx1andsmR12APc6zosVV8RlBRUqNaS1bM59mIxqUTVG9vVszdWD7ZnR5sa/sN7thXa3GNvV/39zXqlx+n74V71PLNac5Snkgda1PWu296jV35VYWTHTtfih9rU5X2eP9xrH+tLbk/7OGVTJClfZcZjiKtp2sdzX35Hk+/v0tO5WdULBprDCwAAAACQJGV/WnelDU4di/J1uq+eaZn8YycPj5M+XduvAFFF03Y9f+NUs9kOiBrtU270BNKu/YmeuuvTOsmz/qRP16YOtN3233p+a5mmmO3OedzoXTGlLPZ4EpyLb30i1/5ET22t1aXZ5grTNVr9lNEvbt9f1yenSO92b03cP/vTuisu0Pp1/cI85wEIjLH/u39njbnKJ+vE0Ro2oVCn3XYUlk+59id6KtH1kf1p3dWHH4fkBEzv+vTAnoB+BE0lvX6z9j1R6iztOiBJH3Tpg2hbuQ68Y26UWSX5eZL2qeOp1BdLOnm1TapfElLuvk6F1zWq8Wcb9VxktPI/v1obfxULVObdulnhH5Roeo7U8XhzrN9nK1S/vk4hu5cqftuihiVzlD82oud+06jGdWF1OPVVw89UO/2SC62co+nDpY4nKxWW1PmVsJ47IOVML1KCsGmvtK5v1MZt++zn6zeNaly7Uc/JDtBufrJBFZ/N1+jIc9r4s0Y1P94h5UxXyQ/Caqs1znbsTC1eMlNjXt5oP/5dUvAfF6uhs0X1N+Wr55lmNa5rVeeBoPKuqVJTbSwgWfHbsFZ/frqCnue5dec+BSdOV0ltk6olSc9p49pGtXZLUrdaf9aoxvWtseN79ePcK1cWKXdXi5p/1qzwtoiC54ZU8UDdcfiGDgAAAPRBV1gfpPh+t3d7WAfNxkwzM8zMrKMU2W7RzMqm/3b6PKvV18ayWVd7syZ9QQ8jk8y3X0+G5/2xc7PXe7czAogpzjN55m3f+bL1UgQaYv28fXrz3Nje/d1SfXzaZGdZqid7JGmqbkz5PMYHVf3nG79+6OrQgV1mW8zBXV12vGRQtOuh6HM/WR9/qF2SdFLONHu1e88k+LvF2H+bG6dI7/bE3+RzrirQSd6/8+2/07uSpnzS3qe5/vbf2ftw15vm3P+sHZzteUfvmiuv/YnmTlHscTnHOunj19r3Q/5pdnB2W73/8brrTbf9t56/69M6Se/o3R5zpeHaa/WJbEk9v9PtiY4tSdd+RGfqHf3x0UeS9teUQt+1W9GUIPh3GA07MV+n396uUeMHL1ks3WuNNyv9F7ely/q9Rqu/5gTh3b+z77VlnC79gnNtJXi9dI/1i9v8AdOTPl3b79fVJEHTOo2rjZ/5LfHi/IIyPqQz49YlXs68KQNT/AyXpH3am+7iT2P57OkarU41XzpVs+aXqvTGq1Vw6f167j0peMEcJ1BZptVLQwqqU81F2ZoaKrb75Rar8eV9Gj1ppsrmSppdpcWzc6RIWMsuyFXBnFKVzp+lqdlXq/FlO8BYlXJSp5DKLsqTDjyn8Hc6nbZlatqyT8oJqSzltsnVf6NU4S47aNq1qVSlX65RWFJo5WKFcqTI48s0NbdAV99YquLQVGUXNarzQFDTb6qSrzrR8NHqWlus3Iuuth//jRvVKSl47mi1fKPAfl7mz9R5K8KKaLTyPlHkbFil4ouCUvdG3Zwbe55n5hXo/j9KGp2n6UskKayaL5eqPSJJPWq/sVSl36j3nkFUv879Z1crO3+Wim8s1qx859jBAs05CibHAgAAAI6cVXr/Nx36wGyWpL0deuc30XF9gyNRhpk3q6uX2W4nTZlq9+lp08Zfua1Tdak3E2lKWXS7iqb4DLWTPv0tIygwTpd+OnZuJ336W3rKl4HmCSD28jwHKi5bT+N06V3xw2xP+nStp984Xfo1M6iQ/LlJ7BHd/H0neHT6R5x9JcjI01Td6AmuxJ/vVN3YzwDH4VejPVWxWqZv/lnSn+uj/369atbg/6AwYO/oydsn65JHdporknP+vvk54yQ3kChp42v2PuxszMTe/d1SffySdXrdXOEERd/9XZ1qJOlXN+mSaZP18Utu0kazr9ebf0m+flu9Pj7tW/qj2W5yj/38r+x9/epX+mOPpOzTlO90sQPEO9X5q0T9/2I/np6/qcPtf/+zunGKtO13zj0xSIZd2xMXizv9HzwdxuTr9FtbNObczAdO4+9d47Xmtv/2ZXpOufFb+kT0Xwl4g9HF3/WseEQ3X1KvbZI0ZV5cYHYwJQmaduhA1z7te99Z9sq+0Q952nq5fHhI0iH52j54b5DrnfZBZ2SfpDzNWd+kqptC9pDyl5ep4KSAxuQVq16SPl+kghxJf2xWsf1a4Nio0sljFBgzVaXrYyUDOjetUo2vZMBGla5t1T6N1vQ5Vd4VfgsrFJok7fvfjbrZs/2q3z6nfRmaECompMWFeZI6Fb6rRm6IVpL0SKka/3efNHa6rl7pXdGp1pWel6NNLeqMSIq0aePdnj2s71aPpGCu+/JSqZnZAQVyr7afz6hOdfb051rIwLmrUy07uiUFFT1NAAAAAAlZrVP1t59sVOTNfXbm3KF9eu/PG9V119SUWagZ5cs8mqyPO1+q3Wy3bQ+56+wv11OuMQJvblaYEYRxt3tom/3vM8+2sz9rij3Hiq4fp1ON7w9ulp27/iQ5x3Ey4dwAU9rz7G2QKBUzW89zHkmfD+c8vAEiV7LnJik3eOTu67ZyO2AaPZabjehmjNlDnuPWZ39aX0gZoD3cluvE2/2TYCdagpMlTS6Na49bbt9s54ENyFTdGM3wiw2v3/Y/TrDpe//su08Se0Q3X3Khbo7+iODnBkFP+nStfQw36O/8fe17xN3+Gq2+ZqoviGrauPhCXbI48bo5Z0+UJL2eUx57TN7g+ff+2b4Op5R5Hm+7Hkr2+L73z2kee4x77HgTlecE6PJzxsWCos5z6z6WOffP0xRvEPXan+gbnx4nbavX9Y9695d5w88Mpq8pPSZHp36lRSecZa4YgLSvNe714MlUfminTkpVKsHNJk4YCP+u/sd5HeqNjYsvjGY+24H6/r2uJgma1mjP3WP0t+XO8kDY/lVxe0OsrVdLpd6JSIqE9XdP+661A693GtknSaM1JtUT3gurvl+v5yJS8PwiLf/xZr3y4V71dLZoww88NUgnjNZoSZGeLv/GhukTsiVF1NkaNldJK9rVKWl0MMdcE1U2r0A5kkbPWB6r+2lZslYW2rPeZ3RCqOkKBiVFOtWyyVwnVXZ0ShqtoO+1Y5/2Jqsf6/XyXu0z2yRJ0zXn88u1+qEGNYXb1L6jR1WX9qfSS2bOvXGXk6Y88HcrAAAA4Jhnbb1a79w1Rm/cEtBrS8do9w+v1oeHI2DqZn25wRJjWLud7WbXWrTXO0NijSBgNKDh067/+Z79fzX/4wQ5De6QT39GlSsWIOrodr6gu8fp+Jsvw6y35zkQseHSTraeJH2vzh7amvT52Kq3Eo7gTP/cpFPxSSeQ90gsYLFx8To7SHv6RzTn2o/oTLn1Cu3nxc1MSxugPYICY0ZrtFNf0svaayedmZL1z7RtD03W9c7fLCO+98+x4L8k9bRrW8JrJZZRvO2h5EHY3pgyxZNVnv1p3RUNnF6jvNNjq2yxoObgso+d6DUkOgx8W70TRHWHmKcI6B4D0r/WTNOp2ZLUrvVuoNxdfxRJEjQNafi1r2iC+yvIl0MaJeMXk9vbNWqCuZ0UKGjT+OgvKFUaF5QUDOmUaFuPTioYeKL9/c91SBqt/EsSV0JwVT+zV3vfalfDf5hrHI/crILsApXf1ajw/3YqcmC0gucWas5/rFZb14YkdRb6YdIYO/CZ1HKVXZojvdehjT9rVKO5bOmWlKfCm9JVRc2MvOGpz7Zv8lTyQJt6PmzThoeqtPjzJSq6NF+56lLnrsTh1YHI7LkDAAAAx7s8BU6v0qjLGjTaXC6uUtaYzI2HS+wR3XyJJyOy1zXqBhZQcWv1feG1C33ZlpnXh/NMNsO5w80MPGLcIKiTkecGkvsjWptzSFil9++KJYJFtvctqSyu/12zMlDr1KhpOi3DAVOXm7E6bbI+fkmrlO0fhu4PmPb/HKLXbjSj3M2ALtCca6U5939Ll2ab9VUTlZXou+T3jTMc3xk2/vpr/ixZb8A0mtXqZle7mcDR7NzBmSTtwOuR9CUg9nbrrR/M1J4d5or+S/6cDYD7Q1O0vIeXk5WegvvDVCYlCZqW6IRQnk44cbRGn2j/IjJMkrKcf584WqNPz9dJl8X/uUdePF1j3T4njtaILPso0e1ODCr7YrfWZf91rn3Orqd5UbGqfLPXe8yu05xPjNbo4D71/MZc6fWc6r9RqlkXnafsMQGdF1qm5lcl5YRUvFLSrn3aJymYnWtuqNDDr8j6sEct35Ge29UjKai8wgSBzRvzlCtpX6TbXGO742pNHyvt+2ODrr6xVKXmsqJFnZLyLq2ImxBq9FjjeLOz0wRoJek5RSKSgnmamSB7tWxyrqR9imTiPli4WjVfmq5gpFX3f+VqFQQCCowYo+yzpqq+oz9B08N47gAAAMDxbFy1Tqxo1xm3L9fpRSU6zVwWLNfEVe0KFlUrYG6bTnQot38otjvU1R+YkaTv6vppk2OTgjjBFDcwFxv27i4DyXhzv6C72ZaJstz6JpPnGZugxs3mcoI7TtDhpE+Xx4Iz0SHy5vOZeRVfsANEbkaeG1jxlgaI/n3f/Is2RmtBxobnR5chlaVXoRMqjZqR/1AWm7elcrMxRLqv/YcoczKp2wpjfzspYwFTKT4z28yAThoQy0SmtnvfuPdVtLamc8/kn6aTPJnXShYwPQIO/ipbrzs1dH21dV17O/Tm3TO191VfYcOBS/ta4/79pmqu+yNPNKCcRLSWrKdmteRcZ05mvq8mtffvnz6o2h9JgqYxe1/vUGSrd+nU+wkrgBve6Ta269C7/f+RKd6mUt2/KSKNLVTFIw0qMQOnkxar6YFS5Q+Xun9zv69GaEyZmjr3ynq3TdWe7Tsfr1FHtz1x0t53Jf2sWW3dks4vUoP3B71JFVo+266t2bZGCv+k1Q5szl6uCt/5zFHDgkKN1j51PFnpXRFVXWSvf+63SYqob7pfrS/bgdzohFAvdCkiKW9ykafWaZ4WL5kZV/t0n/szVnQoelj3t3ZKylPo9gp//2saVPKPo6V9HWpZ4V3RT5fmKUdS5IUm3fz/26jn3PZ/XK7i6UFJQWV7a2sckF16wfybRh3GcwcAAACOV2PqNO62Cp1y1ujUAZ6s0Rp3WYVOvamuj4HTWI262JD12PDs6FBYN3ATXZyJhZwvzxsfbbNn9PbswxfoGRC3bqQ5mVHfpT3PBLNBx4kOf3WHszuBhG2t0clz1m+Tv96lW+vSM0Q+U6K1Lp3FLmGQYDhu3PD7d/TkT78buwY86+0lfhbuIytfwxOMtHUNm5BrVH3ra/9BYAY8++N7rc7kO946ou7fLpb9KfO6do7pZmunnkDM4V670TIc/vvcLRERV1/VufbdMhrJsrBNvnPzBus8+3Zfgyo+OdX/o4Nbs1T+siHPb/1vVXgzc6MZse4PA/8cG8p+GBx8v0Nv3jVVH+zuf8A07vUq+pyle615RDc/YvzNbpyod1MOz/dMJud7Xt3X33f05Ped1zH3B5fo8Z3XwgTs4/cvyzdt0PSDp6bqnZ94l/u1732zVwJdG4ztpmpP6pKgfVbzmVLVv7hPo6eUqKGjR688uUENDzWoKdyurhdWq2jSaO17sV5l1yaegV2q18YXItLY6ap45hW1bGxQw0NN2vxClypmjJa6W9R4t93v5tqwIsPzVNLco/Zwkxoe3qz2Z6oVCkrdjzhB2U2Vun9TtxQMqfqFLrVtbLD79WxQySRp34sNqvyaeQ6SJq1W6HxJ7z2nDXeaK11h1T9j1+qMTgh1T1gd70n6xGK1vbDBPveONq3+bDAWJHXcv7NLUlAzF21Qw0NVKpMUXnG/wt1S8IpqtXe1aYPz3PU0lyhv+D51rK3UwKvPSnKzgq+ojP6NNjz5inpaq1TolDQd7Slt2vFWxA6I/qxJDQ9UKEHe7uE7dwAAAOC4lKeR15cqeKLZntzoaaU66RNm+kZqNcXuxEB+2x6KTbISV1dRsocmuxN7/OomXeIGJlxxsy/31Xd1va+W4+90u3OMKZ/sZxAqI+fpmUXaZeyjptgsJWDPjj6gLMDeigsMPaKbL3Eyg6Pa9ZAnuzb+fAdeF3PwdOhNX1ZfvVJPbdzX/kONcR/oHT15e2zipzkfT5L92U81xca10vM73e7e54leBzKW5ZngOvXUKM073T85kVvP83CznHq5IyemDv8demefDuxq1d++N7gT9cXfu8Zrzff+2fP6/o6evP1b+qOnd0K/ukmXeEqxRPX8Trf7svLjX6MfMt5LovWTB8iKX+qscfda1tn3Wta4QnNdhXXiCnvdhKKKuG1Hfcled/aX6vq0rv9LnlVSu8Fqf2uvtfdDK2rvW+3WhtoSK8/sv6bdsizLal8T237xQ21WV89ez8Y9VtczDdbiSf5tp/9Hg9W2oyfWr6fLannAPEbsfLz92h5abE03z8VZQo2v2IdtrYpb51tmN1h2z1eshtl2W96CamtzZ+yc9r7VbjV8qcLa3GNZVofneZ5UYW3odM/pFavJ2V6TSqzqje2W9+H37GizGv5juufYzv6sdqvOd05Oe89mq8LXXme1W/7jT7+jyf+c7O2x2purrJJbN1s9lmXtfXJ5bPtrVlttbzn93m2xqiSrriPB8Qd07omuBRYWFhYWFhYWFhYWe6m2xn3P+f7WhyXnX6sT7IuF5Whf3BhJuzVqUNpZWHqxfKLNOt183a3tsU44K0HfIbBUNG23nt+63Xq+6etO29etX2zdbj2/9b+NGNLQWv557jzrX+aXWvNv+LwVcBoNdRp3b5nSzWu+54ll2tXsTy4e9SWnXkcqf67Xaz8sN1sBAAAAAEPBWZs1oSKkE8z2dHaH9frKWeknJgGOKuliJB1685apilUy7Gt/oDfylPWpDcq+Ll8njnCaDkW0657sjE7ylCnRuq+mjGUID45/njtPI0aMVFZWVrLh+RH15u49uDd+vL3ViyngDvaiDwAAAADgCNnVqf29Kctm2NfVqUNmI3DU69CBXWZbzMFdXfbUHFF97Q/0RqcO/WGq/n6rp+TD0qEZMJWkjYsvjCu9YZYTGeqSZJpKOnO1Rn8kRaXrDzq1/5lKHTLfEUct1siLZyaLxkrq0YdP36yDvQjKAgAAAAAAAMDh4M00TR40BQAAAAAAAIDjRC+G5wMAAAAAAADA8YmgKQAAAAAAAAB4EDQFAAAAAAAAAA+CpgAAAAAAAADgQdAUAAAAAAAAADwImgIAAAAAAACAB0FTAAAAAAAAAPAgaAoAAAAAAAAAHgRNAQAAAAAAAMCDoCkAAAAAAAAAeBA0BQAAAAAAAAAPgqYAAAAAAAAA4EHQFAAAAAAAAAA8CJoCAAAAAAAAgAdBUwAAAAAAAADwCEiyzEYARzfL4rYGAAAAAADoi+uK5mvEiJHKysoi0xQAAAAAAAAAvAiaAgAAAAAAAIAHQVMAAAAAAAAA8CBoCgAAAAAAAAAeBE0BAAAAAAAAwIOgKQAAAAAAAAB4EDQFAAAAAAAAAA+CpgAAAAAAAADgQdAUAAAAAAAAADwImgIAAAAAAACAB0FTAAAAAAAAAPAgaAoAAAAAAAAAHgRNAQAAAAAAAMCDoCkAAAAAAAAAeBA0BQAAAAAAAAAPgqYAAAAAAAAA4EHQFAAAAAAAAAA8CJoCAAAAAAAAgAdBUwAAAAAAAADwIGgKAAAAAAAAAB4ETQEAAAAAAADAg6ApAAAAAAAAAHgQNAUAAAAAAAAAD4KmAAAAAAAAAOBB0BQAAAAAAAAAPAiaAgAAAAAAAIAHQVMAAAAAAAAA8CBoCgAAAAAAAAAeBE0BAAAAAAAAwCMgyTIbARzdLGto3dbv79lnNgEAAAAAAAzIiSeMNpsG5Lqi+RoxYqSysrLINAUAAAAAAAAAL4KmAAAAAAAAAOBB0BQAAAAAAAAAPAiaAgAAAAAAAIAHQVMAAAAAAAAA8CBoCgAAAAAAAAAeBE0BAAAAAAAAwIOgKQAAAAAAAAB4EDQFAAAAAAAAAA+CpgAAAAAAAADgQdAUAAAAAAAAADwImgIAAAAAAACAB0FTAAAAAAAAAPAgaAoAAAAAAAAAHoMbNB2/WuO+ZenMVe0aNT7PXAsAAAAAAAAAQ87gBU3P3aDsWxcrGJSGnZiv029t0QmTp5u9+qWuw5JlJVraVWd2zoQ17Wn3XddhyerZrApzxZG0ZLN6LEvta8wVAAAAAAAAAJIZlKBpoKBNp35ljk4a42kck6MJXwprXMEcT+MARMJaFggo4FmWPZ6rMqtHm5eYnQEAAAAAAACgdzIcNM1TVugVnXbjdI1JtOesoII3NikYWmyuyYiaULbqtwUVWjHEMj4BAAAAAAAAHDUShTb7aY5GLGhT7rV5GmWu8hmtcdeu1ikLqhUwV2VA+Y/DigRDKvMOSXeGqXuH8ptD1s0h/z3hBGHXNe0p9yFJc7z7STRc3zyXRH2M41i+7NkKbe6x1B6O7Sd6Hsa+26+J7RIAAAAAAABA72QmaJpVolE3Nem0i4MaZq5L4sSLK3TqTQ3KyswZxNzTqS5Juec6ocglm9VTG1LXg95h/BHlL4wFIus6LJXleIb7Lw1LV1QbQdF8lc3tivap3yblLzTqnAZDCqneOc4yhRVStTcouqZdVm1IenxZ6j4LcxVeGjvf+m1BhWr9x8q/okBtTp+pi2KPM7bveumKkIKebQAAAAAAAACkN/CQ5ajlOvG2Bp0+bXSvA6au0dNKdOqSDRqeOjW1jzrUFYn9q+KaAgUjYdUvirXVPNKmiILKvUCSKpSXI6m7UzVuh3tmKdsNRkZFFF45K9qn/MdhRZSvmb7Aaofq88ud/6/RrJXerNcKbZ6bL22rV3bI3YvZR6orzJe2NWnWPU4XSeWtHZJyleet1Wr0qfu3kIKRsKqi+y7X1Ac7Yh2A49WHw/XrdaM19SejdceTw/WBuR4AAAAAAMAwwKBphU64tUqnnG62996os+bo9Fs39zng2ls1oWwFsu1gZ0W4xx66XuvNwKzRxuci0pQyWZaROerTpU5PkDKhbS1yQ6aSpHs2qi3iZr3mKzcoRbqMQKbTJ7/QPnJ5fkABJ/AaLRmwMN+/jcz92IHfyHMbY4FfSXqhS574MXD8eXeEfvTz4fqacyM0bRuuL24YoXcPmR0BAAAAAABiBhg0lXTQbOg76+A+s2kA7OBklKfOZ/UVQXU8aA+/9wYTa0LZCjzYYQ/BT1VrNAO6XvWFNeN56pmWTYnYw/TTZowaj9nllCoAjktvjFRV8zDdZ7y8PP3GMBU3jdTOD/3tAAAAAAAArgEGTWu0566AXrulvp8ZjR1685aA3rjr6kzEXm1L8pSriNoesYOT7rB1txapf8i9x6Kp0RqigQc7pGBI1R3J8057Jz6YGa21arAzR2ND+O1zyfYNwU/OX5Igakmecs024DjwwV9G6ou/yVLjfnONbWckSyXrRqpjj7kGAAAAAABgwEHToccOkrZp4z1KOmy94pqC1BMkLZqqZY9HpJy8vmWbmv2doKWdXWoHNoO5xlD7JXNUEHT72EHWjlbfIH+7zmlKNersloLT5/iPf0Fu6scJHHMCevdPo7QwnKUn0gzB3/V+lorXjdITfwuYq/rgRT1w2SW6PMUyu3iRyitrtf5/u7Q/Y78O9Zf/fB/4k7k+ud0bb409rq/9WrvNDseat36t26LP1a3a8JbZIZGj7XrYrQ1fi53bbRuP+b8qAAAAAPTaIAZNI/r7vefptVsC9nJvWIOd1FUR7rGHtEcnbHKCiVeUxWqVLtmsyivsUKKd9VmhzT2WLF9WaZ3KrgjGBVvT8mWnVmjzCjvL1Z6Eqkaz1ndIU8rUE3ZDm2YfO7CaP9dTGmBNu8qmSIpOXJVY+Y/tCaUqo/uuU3uCWqjAsStLr/x+pK5+OqA/mquS2R/QFx8ZqabXBu+lcP9bL2n7E826d+k8Xf3Vn2r7XrMHjidcDwAAAABwdBi8SIG6dODVztg/X+1UkpGy/RMMqdqtPxqtWdqlemNIe3n+MoUjnlqltQVqW1qvDrlZnzWalb1M4Zwyz77KlO+b5b6XttWrXu5+qhXqro9OQiU5JQCWhqUrqpP0qdGs7Hp1eB/bQqneqcGabGi/JOmeWcr27btMetxfuxU4Zh0apqc3jNS/vhTQLnNdOocCumPTSN33p8Gaji5m/59+oi+v/LW6jniGIYYCrgcAAAAAGLoCkiyzse/qNO7eMmMoeIfevGWqPuhTHwCZYFkZuK0z6P09mZzszfDhcP36l8P1tQz8QlA87YDunHnAbE7hRT1w2Rf1C+df169+Sl/+mGf1/ve0u/sFNX9/uX72p9jPRtOWrtMD1x2JisNpzjeF3Rtv1dzvttr/mPF1rf/+P2m82elY8tavdVvxd7VFklSorzXdratPNTuZ0jy/Q+56AAAAAICj24knjDabBuS6ovkaMWKksrKyBjPTFAAG2bsj9KOfZyZgKklNW4fri5tHZO6HnJFjNf7sQpXf958qPzvWvLXxt9puZhcefE/bH1utO8qu1exoDcz/oxsrvq26x17Se2Z/SXrvVW1Z+20t8W5zzedUXrlaG7b2sj7ley/psR8u143XXKLLLwtpbtly/ex/e7Htwd1qW/ttfbk4FK3VecdPW9WVarj5wfe0/bGf6M6Kz+lq53yv/twi3fHDTdr+ntnZ461n9YtVX3XOMVYb9I7aZrUlqDW69YfeOp1d6nq8Vl92H9/N39aGTs+4h7ee1S9WfVFzr4qt/0VvHn9/9OV6kPTe9k16oHKRc27JH/P2n86LPt4bfvqSf6Ukab/a7rP/Tpdfdolu+C+3Ty9qmjp/5yWf+z/Rfld/7qu6c22r/prsbxZ3LdvX1b2/fFa7EzxOAAAAABiKMhQ0bdYHW/fJ+11o39YWYzh+b/oAQC+9MVJVzcN0X4aTWJ94ZZgW/nKkdqaZSKpPhn1Uc8tmx/7d/WttecWz/mCXNlReq/KVP9cT23d7Xhff01+f2aSfrVykL//4Rf/rZfcm3bHgc7rth5vU5t3m7Ve1/Ymf6/tf+hfdtrHLu0W8v7Xq3i8u0p1rf6+/vi1J+7V7++9VtzTNtpGX9FDlv2jJDzdp61v2kfe/9ZKeqL9VN9xUqy0JYm/q/r2+/4X/o/KVP9Vjz7wqN9723msv6Ym131Z58SI9kGDD/X9arRuLv6oHHn3WOUen/a2X9MQva7Xkc7dqQ7d3C7+/P1mr277ZrK3u4/tTl/aPHCn59v2idu9112/SA0v/ReWrf6+/G/vKmHTXg/brr023am7Zt/WLJ15yzs3zmIs/p+8/Hvv7TL74n+TmqXY1/lZbzcDk/mf1RJN7hZyv66/4qNEhie5NuuO6a7Xkh5vU9losQvrea8/qsR/eqhsXLNdj5nO/91Wtj7uW7etqfe1XNfcL39UT5jYAAAAAMARlKGi6UR/8ZIxedyd9uiWgv/2k3Bj335s+AJDeB38ZqS/+JkuNg/Sryx/fylLJupF6JYOz1409/0LNiP6rSy++EgsQvvfEj3XvH+wHk3vdKq1//Cn9/vGwHrq1UHZ4T/rr2p9qUzTDcL/afnGXnnhbknJ1/fd/pU2PP6XfP/GUNtTeoHOcPlu++22tf93dJt4vVt6q9a+ZrXK2XastyZ7fbc1a75xvnNeadcfdm+QLf+5/UXXLlmtDwmM59r6kX3ztK6rb6tnvwZf0i+//XH+VJBXqy/X/T79/4in9/pH7dL2bqbm3VfeufzG2jWH7H1qd7SVppMZfs0Czz5T09u/1vVvdfZv2a/vjrdpuNmdQquth/3M/1m33tab4UfFVbfjmrfqZe4JTPqPrpzn/v7dZm57zb7m/rVXr3X9M+4xmnOlbndj+F1W37NvONZbE27/Xnd9u1l+jQdr9aqu/NXotJ/Tar3XHsp8mzKwFAAAAgKEkQ0FTADhM3h2hu3+XpScymQmawK53svSvvx2hd80V/TU+1wlmOqJBo936/W82OQGyQn3+85dr/DBJw0bqnDk3aG50g1b9NZpc+JK2RDMHz1XuWeM10pnHauw//ptuKXZDrS/qF48nGq7tOldXf32NNjz+lH7/+P9T3VdjQVrp13oxRdRw5Me+oHseDjtBzDX62pxzo+v2/+HH2uDZtmvjav0sGjD1HPOJp7Thx1/X1dGh6q/qZ6t/rejD3PpbPeRsN3LBF3T95LH2P06+UHOvv9Dtpf2dr/qDtIZziu+2A9FPhLX+1ss1VlLX42v1WLSUgHlOSzVjjH8fGZf0eujShh//PPocnFN8t37+mH1ev39kjW75lPsXelUPbXzWuW5yNeOq8532/drwhxd82cpbftsc/ddlxZ+JZqWm8t4Ta31/s7l3rbMD8+Z1snW1Nmx1/v/1X6vuYffMPduYz+lrP9UGI7ALAAAAAEMNQVMASGaYPEHEARo2ymxxjNfV33eCYk/ETzaUOLQ0UifluP/fqnsXhDT39lqtf+xF/fUtqeCrTjDziaf088+lGIo9Z7FumfNRjR0madhYTb7OG6Tdr/1JswEv122rblJBjvPsnPxRXX3rCpVHz6lLbdvc4Nmr2rIxlgk67atV+pp7TEljp/yTvvadpXITJbV1rR5zA64fu1mbnMex6UtuUNCR9NxMl+vGfy20A9FRu7X16dg55S74eux5kDR2SpHuuPXyWPfBkOx66H5WT7hBSN2gW24uVK57EZ78Uc396lIVOP/cv7Etmg2be0WxLou2/14vuhfO263a9Jjz/7pcl1/kBJ5Tek9tLb+P/iu3bIVu+VSuHZgfNlaTr7tJN047X1d+4eu657/+r8qdP15X2+8VPfX5S2LbOM/pLTe7ge792vB8qmA+AAAAABx5BE0BHF1O+lCV1x3UfVMs3XqGpXxz/UCNsPTv51i68xMH1fx/PlSS0FbfHezF9FL7d+uvf2rVhrWr7cmSrvhqbFi1z0c149pYZqe0X7v/0Kx7V35RNxaHdPk1X0w9UY9jxsf+wR8UThbIM00v1LSTjbZhH9U0N2onqW2nUxF093Zt2ea2flSzL/Ket+PsAs2e4v7DP1Tdtf/1l9T2WLPqapervDikG2qfNbskluhc9YZe+kPsX5fNOD8uOD7244We4fODINn18LdX1Rb9x8+15IrYRE2XX3aJLp//3dj6vS/pVbdkw8mFuvwKt71ZT7TZUdP3nvmdnnD7X/dPuizuuUjkVf/z8zEj8D7so/r8D/9Td5T9kwrOjmU5797p+Zs8/FX/eV92iW64O7Z+/59TZwcDAAAAwJFG0BTA0eeUDzX70g+08JOWJprrBmq0pdLPfKDiiz7UhBHmygHY3eWvn+nNfHzvRa1fuUizr7xWN958q77/w5/7JktKZPKCu3XnNR+NC/ZJkt5+0Z6op3iR6v6UOFdVks7JHW829c4oJQwmj/Jlczp8wcFTNDLhsPdxGhn0/NOTRdr1h9Vacs0lmr1gkZasrNXPfvl7bXcmn+qVJOfqk+i8Tz3XP3w+01JdD/0yVpddUxS9Htb/tlXv6T1tedLNGB2puZddmPh6SWB/tHRBJs4NAAAAAI4+BE0B4DDY/5eXtCX6r1ydf54TsDz4qtbf+kXd+9hLzlD8kRr/sdm6fuk39cB/rfIMlzcMy9Vlt67Rpkf+S99bWqTLzk4w7HrvS/pZ1drkk+70NxgW2Z+w1usHiY4z5iTFzuzv/mBc1DvaH/H80zmv/VtqdePtP1ebOxnRyefqsutu1tfuWqN7vhqraZpS3rlKFBr2Bm/370kQhDWDmhmW9HrwyrlJdU55gsSLv5zDyI9drqvdx/XYs3rxrWfV+rjz7zFFmj29tyHTXjw/aeT+25oE5+tZvv9PCf8uAAAAADBUEDQFcOzKsrTwHEu3epdTLU0w+w22g13a1BybjEc5/6QZ5zn/v22THogWgizULWvDWr/6m/rydbM17exT0mcGnnyuZly3VHf+1//T7x/9lR5a/U2Ve+tWdr+olzI9Dnrbb9UWnSTIcfAlbY2OA5dmnHeG/T9jc3VutNbpS9r0zKuxTq7X2rQpOoTfDSDu1hP/3Ryt6Zo7/z5t+OV/6c6lN+jqT31U545J+8ykcIbOdQuDStrwtHfiJNt7bb/zBDUzLNX1EDxDk9327la9aD7PqYy8UFeXuNM8/Vrra38tt5xpbslnNK3XQXL/87Plz+bfbL+23HetvrzqJ9rwv69qt/PkjT0tNoy/6w8v6q+JgugAAAAAcJQgaArgmFVy4Ye69TMfaKF3ue5DVRmTLQ2m/a+/qPV336rveyJwM/71Gk12A1gHP4gF7KYUquDMWD+99WribMftP9UNbq3Iq2rllK+UxozXOR+brc9//WZPPc6xOinhkPiBeFH3fuO72rDNKSCw/1U9dvdK1XW768/XjPPdPMKP6rK5sTqmW++r1Pc3vqT3nIDae9t+re9/ozY2gdC0BbrSiRp6M1dn/OMF0YmaJKnrr72saZrQeE27ODax1P6m5brzl845Hdyvrv/9ib52d2wipExKez2cfb4ujwaZX9S936jVlm7nD7y/S1vu+1ysTug3N8WVcJg8859kh033a8sfWp3WXF09M8WEYHHGa8as2ERYXfUrde8fuuyJwQ7uV9cfVuuBpt3a+uhP9f2ln9OXH7YndTrnY5c7x5a0tVZ3rG5Vl3vq3a2693Ox+qZ3PGaeOQAAAAAMLQRNARyzTh19yGySdEjjBpKkmMIvbjYm7bnsEs1e8EXduzGWqTfyU1/XLVd5BiaPOSkWaNrWrPV/cNJC335RP/t2rS/bMTpMevI1Kv+U8yD2NuveH7aqyx32vn+3tj/x++hkQSOv/LQKEozcH7DXfq3v/9v/sR/nlZ/Tnd7HeN0XdLUn+HvOdV/X9We7/3pVG767SFc7Exxd/W/f1YZoNuW5Kl9a5DwfI3WS57w3/Pevtf09O2j318e+q++t9eSGJikXkEruVTfp+mhw8j09Ueuc0xUh3bD0p9qasIxA3/TretBHNfdLs2MZxq8167b5Ied5nqfbmtxtz1X552Z7Sh84Jn9G1zuz2Ud5AtG9NfayBfq852+2/vZ5mu0+P7c3x4L5YwpVfpUTkJ1crC9fGbu5/tp0q2640nnc82/VevfvfPZNuvGKuDMHAAAAgCGFoCkAHCZjL7pZD6z4J+V6h0lPLtaX57gBpFe1/vZr7QDZNV9U3Z+ksSfHglAvvv6G83/jdeWKH+jzk+11f226VTdc5QTmrrxW5fe12tmrZ9+ge2+9PD6wNlAzLk86C/vIyV/QvV8q9JcVGHO+vly9SldHg3AJjPmoPn/ff+rz0eDeWF224GZNdrJk9/+hVuVz7KDdjSt/rb+ePDb2uLa9Gs1o7LUxF6p85U2aliQLd+SnbtD1083WzEp4PUgae8XtuvcLSSb5kuznZvndnufKK1eXX1Poa5l2VWEsMN9bI89XefU3k/6dbedq7rdv15XRzO2xuuzW2HWZ0MmX647qL8QyawEAAABgiCJoCgCDaOSpH1XBVV/Q11b/ShtqbogGAWPG6rJbG3XPl2Zr2qlOsGnMeE276gu6o/5X2lD7hWjAa/svfh+b1GnM+Sr/8a9Ut+ILuvKicz2B0bE6Z8rluv7r/6n1P705aVBwQPIW6M61a3THgss12Tnnkaeeryu/dJ9+8eMkgcicy/W1n/6/uPMde/aFuvIL31Rd0xqVTzfCu5Nv0AP/+U1df5m3/+Wau/Q+rf/l/9VtV7odm7Xhib4P9x455Qt6YO19+vJV52u8c87u/n9RVaJzRplbDFz660GSRmpa2Rqtr/+mrr/sozrHDVyOGa/Jl92gO+r/r+68KnkYdPynPqPLov+6XEVXJO+bUs5s3fnLX+meL81WgWeisbFnf1SXLfi6Hmj6L90yw5jOKXpd3qDLpsT+biNP/aguW/BN1a1dpSujGb4AAAAAMHQFJFlmI4Cjm2UNrdv6/T37zKbMeGukvvrLLG0y2x1fvXSf/n2K2Sr9ceNolbxutjpOOqQnbth/+CeLAgAAAAAAfXLiCaPNpgG5rmi+RowYqaysLDJNARzFRkup5nQamWSU8KhUGYTDpVSrAQAAAADAsY+gKYCj10kf6l8/Zum8BK9kl51zUCXnma22/MKDuvUEs1WaMMzSfZd9qJPMFQAAAAAA4LjC8HzgGHTcDM8HAAAAAADHLYbnAwAAAAAAAMBhQtAUAAAAAAAAADwImgIAAAAAAACAB0FTAAAAAAAAAPAgaAoAAAAAAAAAHgRNAQAAAAAAAMCDoCkAAAAAAAAAeBA0BQAAAAAAAAAPgqYAAAAAAAAA4EHQFAAAAAAAAAA8CJoCAAAAAAAAgAdBUwAAAAAAAADwIGgKAAAAAAAAAB4ETQEAAAAAAADAg6ApAAAAAAAAAHgQNAUAAAAAAAAAD4KmAAAAAAAAAOCR2aDp5A3K/tZenfatLp0w2VwJAAAAAAAAAENfZoOmufk6KThao4M5Gpk73Vw7iOrUblmyPEtPuMLsNLiWbFZPR53Z2ntr2n3nn3Dp2azD/KiiKsI9fT/+QJ8TAAAAAAAA4AgYcNA0cFG7Tq/dq/G39uiMorxo+7iiNk24tUun1e7VuItCvm0yqSLcI8sqkx4MKBBwl3p1XVHd9yBfv1Vo84qQgmZzXyya6jn/gJY9HpHUoXpPWyB7lmrM7YasDDwnAAAAAAAAwBEwwKDpcp14Tb5GZY3W2DODGm6sPeHMHI3OGq3gNVVx6zJiyWZVXhFUx4MBTV3kXVGuqUvDigRDqjzcGacAAAAAAAAAjmoDDJpu1N7HOrTX/efu59S18jy9trJGPbvdxn2KPNagA9FtMqfu30IKRsKq9wVMHfdsVNODy5QdcnIz17TL6tmszR3xQ93tbNXYMPj2Nd4dyc6a7DGGykeHndep3apWKChpSpksq13RAelLNqsn4TYDkHKfdpmC9jVGuYKOurgSBt7H6A69r/M9D57HkdAQek4AAAAAAACADApIsszGvqnTuHvLFJS054ll2tVsBymHFfXozMuCkjr05i1T9YG52YBVaHNPtQqe8wRGU1nTLmthvrStXoH88mhzRbhH1VdI4aXZmnWPE9SrDUmPu/u1jxPq9mw3kD4Ka1kvhtnb59Wl+sBURc827T7r1G6VKV+R6OOx9xOU4tpijznaJxI7t7oOS2VTOqLHrwj3qHp6m7O+D4+3N316+Zyg9yxrgLd1hj2/9WWzCQAAAAAAYEA+Pm2S2TQg1xXN14gRI5WVZeeZWv1fplvDLmu3Tr3Xss6+17LOXtFmjRifZ2l8tXXSCqft3r3WuMsWW1KelfWxzVZwpWVlf7bMkmRlfbbLyl35inXix0oS7DvdUme1W5bVE65IsC7Bsqbdsqwea/OS9PuoCPdYltVu1UmWlmy2euK2q7A291iW1VGX5N+y6josy+rZbFV4z2HJZqvHsqz2NQnOz1h859DrfdqPx3se7nrfYzTOwz6W+Rj9z01FuCd27CP0nLD0fgEAAAAAAEDf/PPceda/zC+15t/weWuAw/MLNOpT+Rrj/nP8dOWueEVnr6hQ9ni3cbSCV5Zq+KgqjfvXkMaNk066qk5n32tp4lU5GjEuT6eUVmrkqOhOB1GXOu/x/HPNTOUrorZH/DmONY+0KaJc5S2RdM8sZQc8WaiWJcsdep5UnWZOkSLPbfRnT96zUW0RKffc/tRZ7f0+I10dnvWd6pLU9WqaPM5ImzZ6nxuVq2WbFMzN9zbahsxzAgAAAAAAAGTeAIOm9dr7WIc+OLRP774eiatbuuf1bu07tE+RRyp14IN67XvN6OD4YOtG7e/z+P0OdUXMtv4IKlRr1Oas9c767qndWRtScFu9AoFlCvfi2MErqv37TRtYTG8w9tl3Q+s5AQAAAAAAADJpgEFTyXpmqt5cOkY9d2frjebOaPs7zQXadXeu/rZ0jN79e4lGf3a1TjrXXnfw/W69s7VD771v/3tUwWKN+2yDRp45Pbp9ejXq7JaC0+dEJ3Qy1XX4J3xKLKLw0oACAXNxMinXlCkU9PTx1ENNJ/L4sgT7DfSuBmsSg7HPxCqUl2O2OYbYcwIAAAAAAABk0oCDpj5dz+mdN/dp35ud+qDruWjzyKvKdNpV7jD+bu3+Xq4iP5mq3T/YqPckewj/VSXKuXZxdJveKP9xWJFgSGVxs93bw8aLEw0H93qhSxEFlXuB0b6mPTrje8W5ufFD15fMUUHK7Eg7CzZ+aLs7u73R3CuDsU+PYIHmLPE25Cs3KHW0xgdEh85zAgAAAAAAAGReZoOm24sVuWuM/nbXedq73W3M6/1RsqLVUXvnnlmqejyi/IVm0K1O7bUhBSNhVaXKYIxu36PN0YBhndoX5ivyeL3KJdW82iX5ArMV2rzCGb6fk5cki7VGs1aGFZlSpp5wrEddR5nyI2HVL/J17qXB2KdXUKEVsazcVPsdOs8JAAAAAAAAkHm9DWcOQKf2/6Zef3u0Q3slSTkaf1uXgje1a/xX5misJGmfIo82qvuX1ca26dWEshVYGlbuQm+dzDLlPr5MgexZybNMHTWhbC17XJ66pva20eHii6ZqmROYdWtwFjy3TPXbJAVzZedN1mjW+g5pSpksywnA3jNL2UvDkqeGZ1lOWMt6cU5JDcY+ozoUfq5A1b3Z71B6TgAAAAAAAIAMC0iyzMbBEdLoWzbrNKeuqdcHbTV686FlZjMOk4pwj6qv6FJ9YKriB+PjaGRZh+m2BgAAAAAAOEZcVzRfI0aMVFZW1uHINHWMKtPos81G26hpczRylNkKAAAAAAAAAIff4QuaflCpd/7/Yb3zjvTuo+V67ZaAdj7arQ/f6dTfG6q0/wNzAwAAAAAAAAA4/A7j8HwAhwvD8wEAAAAAAPrmyAzPBwAAAAAAAICjAEFTAAAAAAAAAPAgaAoAAAAAAAAAHgRNAQAAAAAAAMCDoCkAAAAAAAAAeBA0BQAAAAAAAAAPgqYAAAAAAAAA4BGQZJmNAI5uljX0b+uj4RwBAAAAAMDQEAgEzKaMu65ovkaMGKmsrCyCpsCxaKgGJL3nlez/AQAAAAAAZARKk/1/JhE0BY5xQzEI6Z6TZVl6f88+9bz9rvbs2af9Hx4YkucLAAAAAACOrEAgoJEjhuuEE0Yr++STdOIJo6MB08EInBI0BY5xQy0IaVlWdHm9a5fe27NXE8afrHEnnahRI0cMygsdAAAAAAA4ulmWpQ/2f6h33n1fu3a/rbEnjNGZuRMUCASiSyZ5g6ZMBAVgULnB0kOHDunVHd0KZAWUP/kcnTYhW6NHjcz4CxwAAAAAADg2BAIBjR41UqdNyFb+5HMUyAro1R3dOnToUDTeMFgImgIYNN6A6Rvdf9fIkSN01hmnESgFAAAAAAB9EggEdNYZp2nkyBF6o/vvgx44JWgKYFD4a5ju1Xt79mpi7qlmNwAAAAAAgF6bmHuq3tuzV+/v2euLPWQaQVMAg8bNMo28874mjD+ZDFMAAAAAADAggUBAE8afrMg770ezTQcDQVMAGef9pceyLO3Zu0/jTjrR7AYAAAAAANBn4046UXv27vMNz8908JSgKYBB4a1n+uGHBzRq5AizCwAAAAAAQJ+NGjlCH354YFDrmhI0BTBo3Bcuy7LT5wEAAAAAAAYqEAjIsmJxh8FA0BTAoBqsFy8AAAAAAHB8G8yYA0FTAINiMH/tAQAAAAAA0CDGHwiaAgAAAAAAAIAHQVMAAAAAAAAA8CBoCgAAAAAAAAAeBE0BAAAAAAAAwIOgKQAAAAAAAAB4EDQFAAAAAAAAAA+CpgAAAAAAAADgQdAUAAAAAAAAADwImgIAAAAAAACAB0FTAAAAAAAAAPAISLLMRgBHN8s6sre1ZVk6dOiQDh48qAMHDmh75xv6+LRJZrcB+dvfI2YTAAAAAAAYok47JWg2DcjzW1/W5LwzNHz4cA0bNkxZWVkKBAJmtz65rmi+RowYqaysLDJNAQAAAAAAAMBr4EHTCat14o3tGnfjZo2cYK7MrLoOS1bPZlWYK6IqtLnHUk84eQ9TRbhH7WvMVltdhyXLSr305ViZVhHuSfN8JLBks3o66sxWAAAAAAAAAI4BB02HXVaqUwryFSwIadxlFZIqdEKlpbPvTb+cWblZw8wdDkiNZmUHlB2qMVcktmSzKq9Inhpcnh9QIOAuyxSOSNpW72nrw7GGhAptXhFS8kcMAAAAAAAAYMBBUwAAAAAAAAA4lgw4aHrwiQb9va1Dkbaw3nmiRlKN9lQF9Not6ZfXq2bpoLnDAYkfnm8OsY+uW9Muq9bOusxfaMkawJD1inCP7xj+4f51arcsta+x/xvt11EXXZdou7oOu4/v/NMOxbcfv6+EQPRx1andqlYoKGlKmSyrXe6a1OfvDOn37tOzLQAAAAAAAHCsGXDQVLtu1vsPTdU7D83S/l3myiOrrsNSWU5Yy9zh9EvD0hXVdlBw0VQFloYVkdTxYECB/HJz816pCPeo+gopvDR2jNyF8bVO8xcWq8vps+zxiBO49LflL+zR5iWejaaUqUxuOYBlCiuk6qSB0wpt7qlWqNtTPmBpWJEpZc65lGuqr8TAVJX35vyXbFZPbUhdD8ZKEtRvy1dZ0vMAAAAAAAAAjm4DD5oexomg+qZCeTmSujsVrTp6zyxlBwKausjfs//qVHZFUJHHqzTrHqfpnlmqejyi4BVl/mzMbU3RPjWPtCki+baz24LKvcC7UYfqo8HcGs1aGVYkGFKZmQkqSUvmqCAYUfjHnuDvPRvVFpGCufnenh69OP8LchVURF0vxLYqzw8okD0r9rwCAAAAAAAAx5ABB02H1kRQXjXa+Jyb0TlIw8nXzFS+Imp7xB8+tAOgucrzZI1Gujpi/7inU12Sul5NE3bc1iJf/qsTBM09N0GO5z2zlB3ItoOf0eH0znD8ZHpz/ota1KGgQrXx2bMAAAAAAADAsWjAQdOhrCaUrcCDHZLyVdbruqB9ZQcUfXVEnVqph5ennmltSMFt9faQ/ojZz5Tu/GPD+oNXVCevewoAAAAAAAAcIwYcNB1aE0ElsGhqrMbngx1SMKTqAUz6FC8SqwfqW5ysz4zKV26yaOyaMoWCnnPpdY3W3px/jWZlu+12ADWu/ioAAAAAAABwjBhw0HQoTwQVZ9FUexKmnLzMZJu+0JWgDqmkNe2ZKQkwZaZ/H0vylJtgOL0kVZybK0XatNEbqF0yRwXJgqzq7/nXaFZ2vToSbQcAAAAAAAAcAwYeNB3CE0Ft7rFk+bJKnYmPntuYmUmMnEmT/FmXdWpfmK/I4/X+eqT9kq+y6PlXaPOKkIKeCaW8al7tknyTRDn9peRB4t6c/5p2WZY/q7QiXKx8daglYxNqAQAAAAAAAEPHgIOmh30iqGBI1d76m84SP0lRjWZlL1M4p8zTr0z52+qVHXJCpvfMUtM2KX9h/2ud1oSytexxeeqClin38WWxYwxEJKyw3POvVqi7PvmweyeLNn+hex7VKnhumeq3SQrmKl+yn5P1Hc7kWHYgNO35L5qqwINdvrqn1VdI4aVTMxAUBjA07NajlVdqzlX28s3f7vasa1ed0z7nquV6dCAjCl78UYL9p7DrN/rmVVdqTuVv1GOuAzKo57fLo9d/n67RVPp6/abr766Puw/de/RH8kw52S8ddVdqTl173GtC/JL+WO5zmpHnEseFjjr7+qp70d8+aNfSiz9yrnfgeOC8V0TfY7yf7/xLxu81wGG/zpufY9Jwvj/09vPH4bdbj1Z6HlO6z3M46gw4aHo4leebdTdjix3ks2tvxgKW3lqciWt9RveZPStN9qmzrwRBy5pQdoJzcZVrapK2qd5MzXtmKdtsk7TR+5iNY9eEsn3nneg87MfnCXBGa7zGapYm2s7HWxfW2BbAseeZ17pj/3jxSTV7VwLHmhd/pNKap31Nz9TMH/iXxgmf1bcffUwbqz6rbHPdgDyt++4djA/i7frDOumis3PMFcCx58UfaU7FOrMVQKbeA4EM6diyTtLF+mrDY9r46L87yWBDxW49Wjlf9z3jaRq0z384UgYcNB3yE0EBAPpm3ZPRX3HtDypJ+H75TZSZ4M1iSPLLcDR7Ltk+gMHlXuNFNY9p46OPaWPNPEnSM0887QtMullwia7naIZcnXtP/EgdCTINzIzWfmchPFOje9PdK2nvT8Ouv2qHLtbMgvGSxuuqKuf5ePRhffUieb6wuF9azGzUJPe4I/r8eTL7/M+HP/Mkll34m8xlu+MYku76M9d7Mli9AdN1X4luG72Pf+t9XzL3G5+dF8uMdY+5XI/+Nnb/2fee93zS7JPsVxxW81TzqPva7nkP9P6ADgyS1K+79uum/XL9tO4r9b4+mq/xxutq9DPYj1Tn9Pvmb1/p32u08XnKf35uwNQ+v2/+dneSTNPenu9v9Kjn82baz244LAYcND2qJoICAKRwsYrmXSxpnf7woiTt1muvSrponoouMromyNJ5pma+8WHmK54s1XWqMLN6dv1G3yytkffH2Wdq5scNzQQGU87ZF0uSmiucD7Dn/7v9xdGTIdBR535od61TRYKAZ/M6p9O8S+MzIRJktPYq+JnEMzXrkgcp096f8XrantIzOltn96o+fYLMCq1TRZKgZs9vl9vP30UVaiifGm3zPx9P675SM5gkPVNT43kdGawsWxxd0l9/HXXmeqm5IvH1aWqu8b4vrVNF0vc1W/S1I+pp3VcTu/+eqanRN33n691nu+quMva57it8UQZwXEn+uptI+veAqGfWqfkZSbpYM6MzZPfhNXrXb/RN8/tL2vMz9eV8a3Sf53DP1NTE98FhN/CgKQZFeX5vSgYAQGadNeMSXSRpxxu7pV1Pq+UZ6aLLLtVZvl679ejPjey8R3+gIkla12C/ub+4zvlwEMtgcJIXouwgTfw+mn9OUASHT3aBfc3bH2CdX/d9H4btYeu6qEINzrXcUHGx9EyNmswA/7wf2NeyExj0cYOxA83muahCNRX2jxuJP7T34v5MoPu1p6WLzlavBue797f5nOhp3fdL45yeqLGDoxdVqCEaiN6t/3niaX+GU808Sev0czNY5B6jocL+Oz3zmvr4jOEo01zhzca5Mv7Hhl5ff97s6Me08dFVumqCcy+6b0jzfhA/3NO9j90+r/7VeU/yZmA/5snCfk2vGffVRRUPe973ntYzcs7V3KdTAsft7+4z5Y8iQEZ53vuuujL6g1vRjATvY8BgSfi6O15XVRmjXcqn9uE9wLOd+/rv6PVrtDvU3l3czyJJzu/bnxkfO4irX+fr7vdp7eBDzxFH0BQAEJNzjs5yhiZ3OEHNs84wwihOMFUXVaj4fLdxqoqdDwA7uqWeN16TJF1UMS/6ZTR/hj9q2v2a/UU49gXZybYhKILDacJn9W03qOha95XYsKpdf9UO2b/+lxpBnB1v+AN8vfqS6Q7Bistc6L2cz5Q6QdCvxGdm9+L+jGdnlV902cW9qr8VLWlwQywbN9s9p2iAyfbMM0bAS5LUrR3PyP9l3Xk+zCBy9JwmXKyZZsY7jku9uf7s9xtnOGeioZApRO/j8y/1vy542ENKzcwhl1vmIpbJHr2Oc852fqSxue+Vz9TMd87T3Wd8IBY4XIpqHlN59P0DGHy9ed119eY9IOqiS/TJuBE0vX+NjnHKqBgj5Hqjf+c7Xp+8zD43HHkETQEAHlP1qXmSnnlKP3cywT5lfnCeYAdWBw9fFnG4TVW5m0XgZhk885T+J811aAb4UnJrYv3yHDtrwUy97pOpKne2b/55gx3UdfXn/nQCrWedkSBDIgH3S0bvXKyLLrKDznGZuYmYXyBw3IllSHszcmJ6df05md2xbe0AfdyPDH0Sq1n62nXeTKDBkOwHDiDTjJqmjxIwxdDWq/eATInWGv2rir2Zpn1wWM8Xg4KgKQDAx35zf1rPPKMkw3VzdFZcEKRdTTVPS7pYZ+VI2WecLck7xDA2ZNjlfogwvyCbQ2iAweOZuMUNkJ4/zx8IcYOQnmFV0SXRMPwkopkGTjaFm2HWb+f/uz2s7JmnjayH9PdnnO7X9EyiH0iScO9vbymNnt822Jni557jy1a9qKJC377F/pIR6++cY4Iv68w2i3T6cv1lf2aVfV25PzJsMYdC9kE0i9vNBHIzpvvPfSyx4fkErgAglb68BwyUW0osmona/VqfM00P5/licBA0BQD4xGo8JhuuO15X3eB8ATWH1s8rdWrGuYEnd/ht/DBG9zhm/bpUk9UAmeUOf/IO43Wu1WhgxM2+jg3Pt5cEBfx7wb3e4+o09kN+uVFWQOrd/RmdrduZNXzLuiQ/kCTh3t9xJQsu1levSxBInvBZ3eA8h3Yg133ejVp6A84ExHEh7fVnzlKcok7juq/0/V6OHjd+Uqg+c4aixobnO0uCieYAAL15D8i86Gt00tJKzufIRN9hjsD5IrMImgIA/KK1A2M1f+J4J9JwXFTxsCfzbryuqvIGdC7WVyuM4cgTPqtvm8NcPLNrA4dD9mdWxQ3/9U9aJOWXx09kVlTTt4xof4DzYn21wRnau+7JXtdajOfWKjWkvT+97Hqmfct28E5+4JqnmhRZ4u7jdzMtEj3vF1U8THYdeiHd9ZdovXF9mRnlvTHhs7rFe83O+4Fznz2tlrb+znY/VeVmTWXNUw0Z1wCQRKLX+NSfQfor+zMVvuMU1TifB6MlnGI/VCd3+M4XgyMgyTIbARzdLOvI3taWZenQoUM6ePCgDhw4oO2db+jj0yaZ3Qbkb3+PmE0AAAAAAGCIOu2UoNk0IM9vfVmT887Q8OHDNWzYMGVlZSkQCJjd+uS6ovkaMWKksrKyyDQFAAAAAAAAAC+CpgAAAAAAAADgQdAUAAAAAAAAADwImgIAAAAAAACAB0FTAAAAAAAAAPAgaAoAAAAAAAAAHgRNAQAAAAAAAMCDoCkAAAAAAAAAeBA0BQAAAAAAAAAPgqYAAAAAAAAA4EHQFAAAAAAAAAA8CJoCAAAAAAAAgEdAkmU2Aji6WdaRva0ty9KhQ4d08OBBHThwQNs739DHp00yuw3I81tfNpsAAAAAAMAQNRhxgcl5Z2j48OEaNmyYsrKyFAgEzG59cl3RfI0YMdLeF0FT4NhzPARNAQAAAADA8Wuwg6YMzwcAAAAAAAAAD4KmAAAAAAAAAOBB0BQAAAAAAAAAPAiaAgAAAAAAAIAHQVMAAAAAAAAA8CBoCgAAAAAAAAAeBE0BAAAAAAAAwIOgKQAAAAAAAAB4EDQFAAAAAAAAAA+CpgAAAAAAADjmrW+XFj8izfhP6dTvSMPusJdTv2O3LX7E7gNIUkCSZTYCOLpZ1pG9rS3L0qFDh3Tw4EEdOHBA2zvf0MenTTK7AQAAAAAwqN7eJ939lPSj/5F27THXJjbhBOnfPyndeol08mhzLYaK57e+rMl5Z2j48OEaNmyYsrKyFAgEzG59cl3RfI0YMVJZWVmZyDTN0/CiLk24qUFZifaWtVgjr39Fp95t6ex7LZ1524ZMHBQAAAAAAABIas2z0qRaadXveh8wley+q35nb7vmWXMtjhcDjF9O1/B5bTr9shydMK1EuSvaNHJ8Xmx1VoVO/MZq5RTmacwISYe61fOLm3XIu4s+qOuwZFmJlnbVmZ0zpCLcI6tnsyrMFQAAAAAAABiSFj8ila3vW7DUtGuPvY/Fj5hrcDwYYNA0oqwTR2uY869hwenKqWzTuItKJEnD51XplAnOykPd2vWDmdrzamd0636JhLUsEFDAsyx7PFdlVo82LzE7AwAAAAAA4HhS8rD0wNNma/898LS9TxxfBhg07dT+hyr1912epqyggqWVGqUqjf6Yp/DD9g3+gOm5mzV+RYuGx1r6rSaUrfptQYVWkBEKAAAAAABwvFr8iLT2T2brwK39Exmnx5sBBk0lHarR+z/ZqHfjxtyPViDZ3s/drFO+EtLY8cFolupAlf84rEgwpLI13tY6tXuH8RvD7N2h93Xhnj4N9a/w9bfUE47tta4j/jjueXj7AQAAAAAAIHPWPJvZDFPTA09T4/R4kiys2TdvXq3Iug59EG3I19h5PXrv7kZF9jpNuVdr3E3tGnfTKzr1KyGdmCXp/YgORrcZoHs61SUp91w3MFmndqtM+dvqo8P467tDqjaDosGQyqa3RYf812/LV5nZx6Ouw1L1FVJ4qVMeYGlYuqI6GhAtb+2QggWa4y0VsGam8hVR2yM1nkYAAAAAAABkwtv7pNseNVsz77ZH7WPh2JeZoKkkq3Wq3rwloNduOU9vPBHR6E9Vafysdr3rBk7H5Sg4LV/BaXka4xx175826IC5o37rUFck9q+KcLHy1aH6/PJoW3l+vTqUr2JfxmdE4ZWz5IYzE/dxLNms4ilSx4PZmnWP03bPLFU9HlHwijI70LqoRR0KquAaT/ZpYb4UadNGdxsAAAAAAABkzN1PpZ70aXiWpWljI7pgbE/cMnXs22b3pHbtsY+FY1/GgqZeBzaE9KYbOL2qS+8tP0+v3XKedtxbr543nT5vhtWzbpW5aYZUaM70oLStRbGQqSSVq2WbFMzNjzXFBTMT9HFdkKugIup6wd9c80ibIsrXzDWKbT99jjNEv04zp0iR5zZGA7MAAAAAAADInB/9j9ni9/Xz/qyN/7JPv7n+w7jl19e9p2/mv2JuklS6Y+HYkOGgaZ6GX9uiM77VoGG/cwKnF1fo9Lte0Zn3vqIJ1+Zqb+0yvfnrGnV/b5YOxNVBHYh85QaNpillvtqjlmWpbIrRp8+61JkmY9Sur+oM0WdoPoAM6F5bHC01EggEFJjfqO6UfVap1VivnY0q9uyjeK25h1atGtD6VLrVOD9+G/85F6txp2flllX+x5zosTl9zP26x4t/npz2ZPsD+ivl/eW/d5Je8+nuiSj3Ok507Sa6xu1l1RazryPuXjP3m+z8jXOM24+zxN2HQGa13pmpa86+1t17pXttsQJ3xt9libTeGeh1XxwPWrUq0Wu48V4R97qc8r0klSTHM1+/zXsj48czpNt/gveNuD6O7rXF8ecPeKxvT51lKkmnjQ1o/CnZOjl4ctwy9qQTVTTpoFZM+Yu5WUK79tjHxLEtg0FTO2B6WihHw8fk6/RbG5S1oVI9u6QRo6RhksacN0enLZ2jg+FlOpTRgKmkJXnKNYOTnnqmvsUzZD9ehfJyzDavXOV565VGeTJQ79motog9RJ+h+QAGxg6A5K4vVpfnB6CWC0qV6wlsdK8tVm6J1LDD6bMjT9XewMfORhWfVaqCVncfLSooyfV8WO9W4/yZamvs6uf61LrXLlbpOqNxyyr/ObcWqPQsI1gzr8H3uC3LUldjm2a6j23GclmtVWouWez74N56Z65K1aCuh0sUfUnf2ajiQK6a5rqPwbu/XnzwB5JJe39JUlHsWo9ee/Jf8725JyRpS71KVaWqeZWqTvLlsip6Ls6yo0FthfFf0FvvDChQKLWkvSfiz99emlQy0dMt7p7tUoNKlUswCYOk9c6AZqrFd12a75G9V6jllqXlM8x2oC9atSowU5Vms/NeoehnqS7l1Xpel3v1XpJIkuM5n90qV8buj5YLvK/HrVrlO5+BHs/Qi8fTuqky7v2qaUGCL+M7G7W4pNlsBXwe612sM4WADhw4oOKPHtQ3/qF3Oxv4MTHUZSho6gmYuk1jRivw4XQNH+/vOfz0kE67bbOGZ+jIrrp/CykYDU7WqLNbUk6eMYt9hTb3GLPYm5M2ORmrHa0JAqsvdCmioHIv8DdXXFOgoC8DtUYbn4soOL1MM3MYmg+g/7rXLo4P/kkqvKNLDdGASbfC65tV1Hh/LHgxsUTLVsYCKt1PNql5XoPKol8EC1XWWKTKTc4H5y31Kl1XpWXRD6p9XJ/KzkYtXl+gqnn+5u7ONmlesULuOc8IqUpt6kwTvMxZsMzfb8ZytaxsjgWXtqzSzBVFaqj1PmfdalxqfzEwP4znLGhSy8pmNT2ZOPgEpJP2/koi59JiFXn+3dt7onVTpYrmlqlsbpGa14d7l3UzsURNrVWqLPQHaWeuqFKLtVyFnq7uPVH6YOrz750cheZ6HyWQSa0Kr5CqZnuvYKnwjhZVqVLhLW4mm/EjopHh17222Mlui2Wa2j9GNksrZvqy2/xZrWZgNuzL6ksffMKxxr4+ZqptZZXv9V2e94r7o59DclSytEqVtfb11Z/3klTHcz+7tdwRuz8K77Bkuf/e2ak2Fan40thnu9BKqa0z+btKyuMZ0j+ebnW+UKQ87w9vCXWrcWmTClamOyKOd8++brbEsyzLbIoaM2a0Tj1tvE4OjtNNnzxBs8Z3mV3i9OaYOLplIHSZIGAqScrVyH9YpX1/ip9SbPjpIZ3+jcwFTivCPSqbkmBCp2BI1R11nn6VCgU71BTyhjCDCq3YHA2u1nWUKT8SVv0iTxfXPbPUtE3KX9ijzW6gdclmVV4RVOTxel/91JpH2hQJ5is/yNB8AP3lBEPnhnwBU1uOSh72/xpfkCBNvvnlTskJglhG4LXz5dgv9nawJk95nvU5eQXSirBae7E+OfuDbnFtmW9buduva1I4OrQ3rEoV9OLDczz3C3L1natUXFipqlYj+21nWE2+oK9f4R1JMhuAXkh3fyXT/WST1FgWDVj27p5oVXiF/SU359JiFXn7p2MEYVs3VUorQ76Aqcv3xXpAuhVeLzUszMS+AFOe8uYpGnSK8WSMmj8+7OxUs7yBIfsajQWObDkLmtTVWCStbIne391rizXzhVg2dVdjm2Z6hwuvaFOek5Hd1Vjk/5ECx4dJ9vXRtND81OO4IC/+M926TnX2970kxfFSvcZLkibmqUDeH43tHyESfZ6MSnE8U/rHYz/uprNSD83vXrtYTXPvV9kkcw3g95fdZku8QCBgNsUEpOwJQZ1yarayTzlZweH7zR5xenNMHN0GHLYc9k+JAqbSe+FKvdvRqf0PLdPfXokPnA6bYAdOh5kr0gmGVO0b9mWp+oou1Qc8M9pLkso1NVCvDk9dU7vfVGNyqA6FnyuI7rMsJ6xl2bHgq6k8P6Blj0uhWuf4tSF1PRhQti8Q6w7RTzTRFAD0Vqc616X58CpFM7l8X852Nqp6hb+Xz85GVa8o8gcyzA/yE/P8WQTp1ieypV6lFyzzBzBdM5bL2lEc+7Bcm6cuI+MtkdY7Z6rSm40n2V+QW6vUvKJSzStb4odW7uxUsxH0BQZNovtLzSr1fDEMBALKLWmO/rAh9e6e6F5bHbv+J5ZoWZ8yQvOUN6/ZCR51q/MFqWhSb++K+PMPBBLUx1tXqlxfn1yVrnOPCWRajkoeblGVcd35MzwLFfKMJujubFPRyirJzdLeGVaTzPeURFpVX9KsqqWxIFBcUGhl7P3OziSPzxTHsa1wgT9I6JVzabGKVsz0lz6qTTHIPeF7iV+q40n2a7wvO9pXKqVQy60uFa/PddZXK29H6vIU6Y6Xkvl4dnaqbV1z3PB9syZ4fUlB0h+9Aa/de82W5N54vVsv/LE94fJ2zztm96T6ckwcnQYYNK3WiZfmaH9bvd5si0Rb3wsv0+5fOUHEQ/dr3+okgdMTs/t0AuX5CT6sBwIKxAVCXeWa2ot+naHsWB8jYFoTyk7c5tnv1ERZqc4wf4bmAzgc7OG0lZrpvjYtlZY1JglpRmtqeYbzD4pWrSqUb1iYV/faYgXO6tQy90ewpZ3KNesoxgVgAvZwYiNzQW5GhdSL7FdbbybXAvos6f2VoCZoa5W0ojp6zae/J+KzzwtnV/X6mh+YBOdvWXFZRPE1TS21rEyUCQhkip1Vall27d4iSZWFAd/Q+bxJRc4PFE5W6cKQCpzsvu4nm6SEIzoMzlDm/oyGACRvmRT3s8diaal9zcZJ+l7SN80luQrPdl+Pu9TwwsxY4NSp9d651F2/TJ1nJc72HLBEj2diiZp8NYSdH8BL6qP3buudM6XW9D+oA8Bg6UvMMoEeHfrA3+ILmLoSBU73duutHxXrQ2+/Y8mamcqXWQoAAPrCHnaYqraUV+Ed/kCGXm6OzyLzTEIQNxz9hU5jRlV7CGNUivX+Gm92kCf1B123DmtsaHK0Nqk3ay5BAMZKlI3q1jHdYdd6nWlOOjMxT0XOF2RXzoKm6D67kgWYgb5IdX8lMqNMDfPcDLhe3BNb6lW6zv4SHL3fCislJZ8Qyq9TnevcoE+O8i6IlfAYTIULG/pWRgDoLycIY1neut9uhl9YrepU57oC5U0sVGilXfO08+X4ofnAoJmx3PN5pkklSjASpq/vJSkUNXZ5gpJ2DdVo6aUENUfNoGVG9OXxeEcxbVmlmUoweghIYvwYsyW5M87M0QWfmJpwOTl7nNk9qb4cE0enAQZNV+n9X7Tq0AVlOv0To/XOowkCpi43cLp9nw6836m3fjRTe18d/A/qh92SzeqxLFkLcxVemjizFQB6xx52n2yil9Y7zWFWXgnqUm1ZpYAzi6n5odWupegPKnZ3tkVrYaVb7wvYWk0qmWgfP5ZNkRsL9iQ9537a2ajiwkpnIqwcldQ2qGjFTH+mxMSQilPMNA4MWIr7K530JThsdn06/yzhlpPJmex1wseokZoqS7V7bXGGs6/N2qxABpiTPEUZPwpMDKl4Xps614ZV6bxv5U0qUltno8Iv9GZofqz+I8PtkUmtmyr95Y8G8F5iimVYH0EpHk/C9xlPOaXWTZX2RGzOj4S5Jc3OCKRE9zwgfcSYhDyVTA3P78sxcXQaYNBUsrbO1O5bA3pt6RhFfpMkYOo6dL/23T9Gbyw/b0gETO1h9hkObN4zS9mBgAJxNVYBoO9yFtyvBpUq1/hQ2XpnwM6sdOpCmR887bqfnuwBJ7BY1ZqkVtWMMl9WTrR2mzsjcbr1cTzDJaNZP3bGgz25jBMQ9mYzuNmiKWp3xetW49JSNa9siX0Yn1ii+xuL1Fyy2DOs2Q6mKq5Wln3c3JI0Ey0AqaS7v5JxZjYOzVAv7onEs4Srt5mc0XP0ZGrPWO6U9fB/AXVnDffWbhyI1gdL1ZxqMhKgv5z3Jt9kTLKvd38tyBzlXdCs0pLK6AiMnEuLpZJSVZr1upNyZv72lppIGrQFEtjZqGJvyRXzc09/30uSyFmwTFWJaqi6P4hfWqyidaWqj65v1arCSv+Ih4FI83iSHd997/H/IO+MCprXEFfrG3BdeKbZktyhAwd9/x45amS/Mk37ckwcnQYcNAUADKYclTxsqeUCf21Pe/be2AzxOQuafH3Mup+tD5aqOVrnzbNEv2jak2kURIf9zlSbOaQr5fq+s2cmbovVYU00631K3Wqcn6vSdVVxdVNzFtyvhnnNKj3L82V2YomafBMeuMdts2s1mrUZgV5Kf38p8URKhW1q2BH78pfqnuheW61KuQFWw8SQiuf5S1vEnctZTSpOMMFH4R3ODOCevrklBWrx1ZlT4vN3Ft8PEYnqEL/QoK4ktY2BgUn8HmnXBva/nxTOrpJUFBuKPzFPBUr8Q4TLnbjHDYya77XmPQykNLFETa0FsddS43NP+veSVq2Km+gslUItt1ok76ifC1qcH6+d89nRoLbo+pmq9P4I3efj+funfTwJjj/Qz5Y4vl35EbMluYnnnOkbkv8P+ZPMLr3Sl2Pi6BSQZJmNAI5ulnVkb2vLsnTo0CEdPHhQBw4c0PbON/Txaf17IwIAAAAAIJ1TvyPt2mO2xvzgE3/Wwlnnms1xDh48qLLGt9T0t3PMVVETTpDe+obZisPt+a0va3LeGRo+fLiGDRumrKwsBQIBs1ufXFc0XyNGjFRWVhaZpgAAAAAAADi6/fsnzZbBcziPhSOHoCkAAAAAAACOardeYmeAJvPHv4/SK395VX/tfC3lsv3Pr6hz31hz86gJJ9jHwrGP4fnAMYjh+QAAAACA482aZ6Wy9WZrZtXPlRZdaLbiSGB4PgAAAAAAAJDGogulL19stmbOly8mYHo8IWgKAAAAAACAY8L910gLPma2DtyCj9n7xvGDoCkAAAAAAACOGY3zM5tx+uWL7X3i+ELQFAAAAAAAAMeU+6+x64+mmhwqnQkn2Psgw/T4RNAUAAAAAAAAx5xFF0ovL5WWf7pvwdMJJ9jbvLyUGqbHs4CkIzvNNoCMs6wje1tblqVDhw7p4MGDOnDggLZ3vqGPT5tkdgMAAAAA4LBZ3y499hfp2delv+yWdu+128ePkT4yXrrwTOnKj0hzp5pbYih6fuvLmpx3hoYPH65hw4YpKytLgUDA7NYn1xXN14gRI+19ETQFjj0ETQEAAAAAwLFssIOmDM8HAAAAAAAAAA+CpgAAAAAAAADgQdAUAAAAAAAAADwImgIAAAAAAACAB0FTAAAAAAAAAPAgaAoAAAAAAAAAHgRNAQAAAAAAAMCDoCkAAAAAAAAAeBA0BQAAAAAAAACPgCTLbARwdLOsI3tbW5alQ4cO6eDBgzpw4IC2d76hj0+bZHYbkOe3vmw2AQAAAACAIWow4gKT887Q8OHDNWzYMGVlZSkQCJjd+uS6ovkaMWKkvS+CpsCx53gImgIAAAAAgOPXYAdNGZ4PAAAAAAAAAB4ETQEAAAAAAADAg6ApAAAAAAAAAHgQNAUAAAAAAAAAD4KmAAAAAAAAAOBB0BQAAAAAAAAAPAiaAgAAAAAAAIAHQVMAAAAAAAAA8DgyQdNxyzX6ygYNH2euAAAAAAAAAIAjK/NB01GLNaqoXePvsnTmvZbOvtdS7l09Cl7foGGj7C7Drlym0/6pRMErK8ytU6rrsGT1bFbCrZZsVo9lqX2NuaKP+rmfuo4ebV5itvZNXYcly0q2tKvO7qX2fpwfAAAAAADA8Wx9u7T4EWnGf0qnfkcadoe9nPodu23xI3YfQJkOmgYK2jThrtU6/bJ8jR0jDXPaR4wJalxhic68q0cnFcwxtjoGrGlX2RSzsZ8iYS0LBBSIW6aqXJJUrqmBgKYuMjcEAAAAAACA19v7pMrH7MBoUaP0wNPS0zulXXukQ5a97Npjtz3wtN3n1O/Y27y9z9wbjieZC5p+ok2n3ThdJ2RJ+3a06s0fXK3XbgnotVsKtOMH9dq9Y58OZgWV/bkmnTx1tLk1AAAAAAAAkDFrnpUm1UqrfmcHRntr1x57m0m19j5wfMpM0DSrWuOun65Rkt7/Q6X+VjNTH7yy0Vn5nKxXyvVezUy9+YeIDmaN1tgJgx80rQj3yOrZrLpwT4Ih7h7OcHy3T/s1Zgc7k9Q/VD42FL8i3CNrYb6koEK1lnrCseIB/uH2Ax++b/MPz68I98jq2KzNPc5xOuqcx9SjzWv8j60nXGE8XvecKuztO7zPjn0cX5u7X/dxGM+dZZYNWNMuq2ezNrvPg6e0wuA8NwAAAAAAAPZQ+7L1fQuWmnbtsfex+BFzDY4HGQmaBi4r0kljJL25UT3rVpmrFbioXaff26YzPhWMDtk/LIIhlU1viw53r9+WrzJv4HTJZvXUhqTHlzlD4OulK0IKevexpl3WwlyFl8aGytdvCypUa++nJpStwIMdkiIKLw0oO1QjOUHBsikdqneH1z/YpVDtINUinRJSwXPOY8i3B/FLQYUW5qopes5S8IpqWbXeNvdx1GjjcxEpJy9WL3ZJnnIlf9sFuQqqS533xJ67rgdjz8uyxyPKX2gEQIMhhVRv98mepZrD/dwAAAAAAIDjSsnD9lD7THngaXufOL5kJGiq9/fpgPYp8liNDpnrktqn/TueMxszLKLwSjtQJ0nl+fXqUL6KnWzQun8LKRgJq8oJdErlmvpgR3RrSaorzJe2NWnWPbG28tYOSbnKS5YduWSziqdIHQ+6dUglLZqq+m1S/twkE1kNSIeaoo8hJvJ4ffT49jn7z8n7OGpe7ZKCBZrjZtBeU6BgJKJIMFf5Tn/7uWhReXR9WPWe2qo1j7QpoqByL4i1SRGFfxx9Fo7AcwMAAAAAAI4Xix+R1v7JbB24tX8i4/R4k5GgqfXMVL15yxi980zYXCVF1wecGqfukrx/xkTatNET7JTK1bJNCubmS6pQXo4UeW5jNKgqSXqhSxHPP8vzY9mb0SHlC90wYmIV1xQoqA61GJM1lbd2SJ4gZELBkKqNIe9ph69HuuQP9dq6XvU8she6FFFEXS94e3gsalGHJ+CZnxtUx/omdSlfM9dIUp1mTpE6Wu3noiaUHc0crXBLINQaWbqS5GamOgb03AAAAAAAACSx5tnMZpiaHniaGqfHk4wETYeOFEHBOPnKjY/wSfd0qsv7b08907Ip9hB8ezh+OvkqM4OfaYKtkqRIOFpOILZk+zJdB4cdUM4vrHMCpBF1vWC35Z5b4QzX9wQ7PfVMq68IquPBgAJLw76Ac3L9fG4AAAAAAAASeHufdNujZmvm3faofSwc+wYcNLXrlVo627fs1biLQmZXyel/Wm3y9al0dKUIyV2QmyDL0WRnl9o6lHB3bi1PyZ4gaW6+tM2pydmn4KWnZqdv8QxLH2I6upy6pkvylOtk6XZ0RRTMzXeG48cyWt3SBm6Ad6qROZra0ffcAAAAAACAoevup1JP+jQ8y9K0sRFdMLYnbpk69m2ze1K79tjHwrFvwEHTrLNyNcpsTKpMY67M1+is0co60VyXnl13M/EQ7opzc+OH43tqdNrs7FJ7iHmNOrul4PQ5/jqavuCrt39MXWGiM4ipebUrYc3TinCPbwb5oabmkTZFggUq+7cCySlbUPNqlzSlWJXTg55SBolLG9hD71M7Wp8bAAAAAAAwdP3of8wWv6+f92dt/Jd9+s31H8Ytv77uPX0z/xVzk6TSHQvHhgEHTU3v/6EySb3S6Ro+r1rZp0t6p1XvPWGu74VF9QpH8lVmBtfWtNtDxNfHJn2yBRVaEetb11GmfM/kReU/DisSDKnSmRhKqlO7b5i4nY3qm6BoTbvKpkiKm/DIY9FUz8z0jiWbVZnwHIeQezaqLRJU/pRgrB6qU+s0GIyo7RH3zJ2A8xVlcY9PcobzJ3O0PjfAULVllZGxvUqtZh+1apWnT/Ha7pTrA3eae+hW4/yBrE+te22xAvMb5TurnY0qTnrOxvl6llVbPN22rIrfL3BY2Neo73r0SbXeub6TXrvG/Zbonot7XXAW3z4T7CfRfaQU+4vbp9R6Z+r1QDrda4sTX4euuOuxWI07Y6tb70xwTzjvKXHvf1tWJXnfVN/ukSh7m8THSXy+fq1alXI9jh5J/pbG55u4aynl559UkhzP/MxkviZn/HiGdPuPu5/NPuk+wwIx69tTZ5lK0mljAxp/SrZODp4ct4w96UQVTTqoFVP+Ym6W0K499jFxbMtY0HRPV7f2HZJO/FSVTqto0ajz5jhrpitwXp3GVrTo9E8FNexQRH9fU6oDh4wd9EqNZmUHVN9tTJa0MFfhpYmGiHco/FxBtG9ZTljLnMmLJEn3zFL20rB0RbWzrzLpcW9dzhrNyq5Xh3dypoVSvVO7MxocXFSvcCSoUK0lq8MOBZbnB1S/zVO7szakrgcTneNQYgdD5ZuoySljYGTxlucvswPY0cdXoLal9eqQO9FWckfncwMMPa13BhQolFo8r4ddjW2a6fsQ26pVgZmqXNkS7bPs5VzPh057fVtjl7O+Sw0vzPR9KG29M1elF7jb9319Sjsbtbik2Whs1aqzSqXoObWooCTX+GJRpIYdnvcBy5K1o0FthQm+gACHWeudM1VpNnqkWt+9tlqVK6tUta5U9XHXcrca5+eqaa57b8TuubgvwvMa1OW9P6wuNahUuUYwqaq1l/dR3P6c5eESuZWPWu8MaKZirzWWZanlglLlJg1KAaZW1ZdIVSuLVFmbIOC+ZVXc+57VWqDSs2LXbOHsKumFTiMw1KnmeUXS+rCvvbuzTZqXpzxPmynuHmmtUmVh4mBR99rFKl1nNO5sVHFhW+w9q7VApWcluiec92uzGUehJH/LnY0q9n2+6VJeref11llfEL3mEn3+SSTJ8dStxvn+z4AtF3jfB3rzeSuRZMcz9OLxtG6qjLvHmha47yr2+cc+o8ZvD3g91rtYZwoBHThwQMUfPahv/EPvdjbwY+JoYA1kGVbUY519r2VNKKqwAgVt1oRayzr73iRLbZc1dtqcuH0MxlIR7rEsq92qS7COheVYX460Q4cOWQcOHLA++OAD6/3337f++OJ2swsGqrXKkqqsFrPdsqyWlbK00lmTqN+OBqvIbUu0vrXK0rwGqyvat8hq2NHP9Sl1WQ3ziqyqlUX+/gn22bJSVlGj26PFqjKP6a7x9uv1eQAZ1FplaWWVVSVZVa3mynTru6yGeXa77z52Jbg3ErYnufa7Gos8+4wdK475upBkf34tSR5TsnYgAfdaM69pR8L7wmxPsG3LSllVrfZ7Tqzdvgdi7y2mZPdIkvegHQ1W0bwqq8rYZ/w5x++3ZaX9+a1oZVXcuePokupv2dVofN6x/K+vidb7X7fjpTpe3Gu5Kcm9kvyeSHM8Q/rHY96ThgTnn+75wPHt4h9alpanXu57uMN6d/e+xMvf91mvvdRtvfrnLqtz2xvWrJo34rY3l4t/aJ4FDrc/vrjdev/9960PPvjAOnDggHXo0CGzS5/989x51r/ML7Xm3/B5K2OZppJktRVo1+0362+tnXpvr3TQaf9wb0SRJ+r1+u25em/rRmMrAEBftW6qlFaGVGiukFR4hyXrDs+ahFk0bercKWnGclnWct9+ujvbYv/Y2almFShvoqfDxDwVrWtSeGcv1qfQvXaxmuber7JJxoqJeSpQs5qejGXDhldIBbGZ/IAhqlWrCqWWO5JNdplm/c6wmtZVKTTDyZZbEfZnozn3RumDRo7axBI1WU0q8d6HcboVXi81LEz0qmGYEVKV+xrRa3nKm6cE2YGF9veKGb5GIKHWTZUqmhtSzsSQiud53wdseZOKpBXVcVmevvc9Z9vY9duq8IoqhWbkKO8C7z471bmuSMWX9vG9ZUtYlSuXGfdbtxqXNqm4tsx4v+1W5wtS0SRva47yLpAqN3nu40l2JnfTwvh3axxl0v0tL8iLZudHretUp6ScBU2+7H1J6nzZHI1jSHG8VJ8VpX5+3kpxPFP6x2M/7qazEg+/T5QJnpNXEP/eCDj+sttsiRcIBMymmICUPSGoU07NVvYpJys4fL/ZI05vjomj24CDpgcfq9bfft2oyGPOoPcP7te+X5yn3bcH9PotAb12S0Bdt2frneZyHfzA3BoA0HeJvoQlMSOkqnWlWuwdTv9gqZJ/BG9VfUmzqpZ6PuSaQdeJeSrw/jvd+oRaVV9SoGXRIVhehVpudal4fa7zIbpaeTt6EXTZskozV/TjCzCQId1rq9XWWJb0C2q69a0PlqrZ/YI7o0wN8ypV7St1UajlOxpUtGKmp/5b4mHCWleqXF+duFyVrvMGklLJU54v6JRof+YX3ByVPNyiKqMfwyjRazsbVR19Dc9RydIqNZfU+4IjOQua1LKyWaWeIEtc/VLlKDS3KBaU3NmpNud9qnB2lZrdIfo7O9Vm/uiXQGWhcd0XVsYP/99Sr9ILzEBqjBmEyptU5Pt34QJ/YAlHr1R/y5xLi1W0YqbndbFbjbUpBrk790SqH7tSHU+yPyv6ak377pe+f95Kd7yUzMezs1Nt65rjhu/7SjyZQeaJefLfPUDM7r1mS3JvvN6tF/7YnnB5u+cds3tSfTkmjk4DDprqnVXa91ipDvT+ujosakLZCgSmyj/vPQAcb+wgi0rcD8QBhWe3qMrsJsVqVK1sSfmBORNa75wptfozXKN2Nqo4kKvOpe6H6GXqPMss/m98aXa+yFa1psu2AwbJzkYtXl+s+xP+ENCL9U6GT9Vs966wAz/RAI9rYomaPLUVo/dC2pqmllpWJsoE7aUE+/PXnlM0q9Sy7NqoRdGAU6L6jYBf95NNap5XrJD7Gj4jpCpVKmwE3gvvcK+/LjXMk+T8iOAN0OfkFUQDm91PNklzQ3bgZUZIVU5WX/eTTbEfKVIw6y1aOxpU5Ks57GaQp9sTjnsTS9TUWuUJxC+WltqvlXGi9U/vH9DnmuaSXIVne+6ZF2bGAqe9+ryVIYkej/N+FvvMWajlrfE/lgDAkTTwoCkA4DCzh/Y1v9xprkjMG2SxLC2fmCi7xjNhlPnFz/mCGbWzU54B/CnXu7Mgu8uqLU5GqJIHZu0vzg0qS/khOsFEUAwBxhHjDs1NloGTbr0zAZSR1ZZb0iwlnBDKMWO5c+3bGZ5J+zkKFzb0qnSGO2w5XQZeStHXna4EGbOAyR7l4M9otieaSR7oz1HJw/Zrf1ejMXFUNDhql6WIjUAoVGilHYjtfLk5NmLDmOE7PnvVY2KJlq2MDa9P+SOgo82eaTUq7ZBrHLuir9uWLKtJJepUszlixzNhlP+Hqb4rauzyfDayM7jd4e29+7yVAX15PGYmqZnVvbMzxWgpHO/GjzFbkjvjzBxd8ImpCZeTs8eZ3ZPqyzFxdCJoCgBHoYT1Dh3da4vjs8487A/Jng/oOxtVHHBmJzUDphPzVGTWNtzZGcsGSrM+Z0FTXFCzdVNlNDPIGxhihm0ctXaG1bTOm/3sBHsKnYyddOvVrfD6ZhVFZwh2FzuTzg3OJL+37XqiZmAmMfMHkwS2hFXZm35eW1YlySjt4488OD5tCatSVWoxfgizWqukaKC/VauSlHzIySswfsBzgqNrw2pa57+W8yYVqa2zUWFvORfjx8W498IE7ICrnSEe+7EjV6Xr7Ow+O/Ca6Pq3S+zEsspxPGvdVOkfgr5llQLOjPNpA4xp5E0qOvKvvSkeT8L3tJ2xIHL8fe3UOe1FhjiOTx8Zb7Ykl6nh+X05Jo5OBE0B4Gg0Y7laVlZqphGk6F5brFxfTVLjS+bORi0216f69X9iiZat9E48Y9ffKnKHOqZbn0BsaGUsQ8ge+mtn6uRcWpxg6GOlilLUggSOKDPgYtklMKrcL4np1u8MqynhhDT+rKCcBcvsmqFmFtyWepWuq0pSIzjGVzM1mZ2NKi6sVFWazLk4Tg3WmXFfgNPX5AOSTlgzo0wN0QmhClXWWKTKQrOOr/O+Y7xH5E0qUtv6+CH4OZcWSyWlqvSWAugLX+1VT0kKy4r+0FHk+RGycGGDiryTVzn3a4iREcefnY0q9tahdmqxx2p8uq+/mRk5k7NgmaoS1VB17olB/7yV5vEkO370M2pcbW+n7j4/OCCJC880W5I7dMCdttw2ctTIfmWa9uWYODoRNAWAo1ThHZa6Gts00zOkMLekQC1mfagdDWpzs2CcAKm73h0S3OypeWovsWBs4R1ODSw3i+aCFl+ANd36PptYoibvOTtlA/q1z0ST15hBHeAIa32w1F/L0cup62h/abQn7Yjdb85Smxf90SEqwbU/84UGdRkZdHGT3JzVpOJEE4Ek2J+9uAEAe6h0ywVGv7M6tcyi1jBS2Nmoal89Xy+ntq8zXDhnQZOs1gKjprVdk9F8j8i5tFhalyDAMjGk4nkJJphJIv4eKVVBX+pnTyxRk/ecC9vUsKOPP0rg2BB3LfhrsbsTdcZdc9HPLcmzrRMr1HKrRfJmQl/gKcOU9vNWX4/n75/28SQ4fptZTuBhe3KoxOsBvys/YrYkN/GcM31D8v8hf5LZpVf6ckwcnQKSLLMRwNHNso7sbW1Zlg4dOqSDBw/qwIED2t75hj4+rX9vRAAAAAAApHPqd6Rde8zWmB984s9aOOtcsznOwYMHVdb4lpr+do65KmrCCdJb3zBbcbg9v/VlTc47Q8OHD9ewYcOUlZWlQCBgduuT64rma8SIkcrKyiLTFAAAAAAAAEe3f/+k2TJ4DuexcOQQNAUAAAAAAMBR7dZL7AzQZP7491F65S+v6q+dr6Vctv/5FXXuG2tuHjXhBPtYOPYxPB84BjE8HwAAAABwvFnzrFS23mzNrPq50qILzVYcCQzPBwAAAAAAANJYdKH05YvN1sz58sUETI8nBE0BAAAAAABwTLj/GmnBx8zWgVvwMXvfOH4QNAUAAAAAAMAxo3F+ZjNOv3yxvU8cXwiaAgAAAAAA4Jhy/zV2/dFUk0OlM+EEex9kmB6fCJoCAAAAAADgmLPoQunlpdLyT/cteDrhBHubl5dSw/R4FpB0ZKfZBpBxlnVkb2vLsnTo0CEdPHhQBw4c0PbON/TxaZPMbgAAAAAAHDbr26XH/iI9+7r0l93S7r12+/gx0kfGSxeeKV35EWnuVHNLDEXPb31Zk/PO0PDhwzVs2DBlZWUpEAiY3frkuqL5GjFipL0vgqbAsYegKQAAAAAAOJYNdtCU4fkAAAAAAAAA4EHQFAAAAAAAAAA8CJoCAAAAAAAAgAdBUwAAAAAAAADwIGgKAAAAAAAAAB4ETQEAAAAAAADAg6ApAAAAAAAAAHgQNAUAAAAAAAAAD4KmAAAAAAAAAOARkGSZjQCObpZ1ZG9ry7J06NAhHTx4UAcOHND2zjf08WmTzG4D8vzWl80mAAAAAAAwRA1GXGBy3hkaPny4hg0bpqysLAUCAbNbn1xXNF8jRoy090XQFDj2HA9BUwAAAAAAcPwa7KApw/MBAAAAAAAAwIOgKQAAAAAAAAB4EDQFAAAAAAAAAA+CpgAAAAAAAADgQdAUAAAAAAAAADwImgIAAAAAAACAxwCDphU6odLSmd9q08hx5rrBU9dhybKSLD2bVWFucCQt2ayejjqztX/WtA/NxwgAAAAAAAAcQwYYNLUNC07XqUsPb+BUkbCWBQIK+JZ6dQRDqs5UkHLAKrR5RUhBs7mf6grzFdnWoUgwpLI15loAAAAAAAAAmTDAoGmN9vzgfkUiRyhwGqdcUx/skKYUa/MSc93Rrk4zp0hdrfVqi0j5hUMlMAwAAAAAAAAcWwYYNJX0zs16p3YIBU5f6FJEQeVe4G2sU3uKIfwV4R5ZPZtVF+7xDPXv0eYlzrok2ylBqYD2aAZondqtaoWCkqaUybLaFQ1zLtmsHu/59CIztiJcrHx1qGVRjTY+F5GmzIztz8vct3nOfV0fd24V2tyT7DH3Zj0AAAAAAMDht75dWvyINOM/pVO/Iw27w15O/Y7dtvgRuw+gjARNNcQCpxfkKqiIul5wG+rUbpUpf1t9dBh/fXdI1d4gpiQFQyrLbYoN81dQoVpL1d4239B/OzhYNqVD9W55gAc7lL/QDRKWa2pgmcIRSdvqFQhMVbmcoGRtSHp8mbPfZQrnlMUHL30qNGd6UNrWonJJNY+0KaJ8zTSDkWvaZdWG1PVgrGRBfXdI1e6+061Pe24V2txTrVB37Lm0H7MdYE6/HgAAAAAA4PB5e59U+ZgdGC1qlB54Wnp6p7Rrj3TIspdde+y2B562+5z6HXubt/eZe8PxJDNBU7mB0xrt3nUkA6d1al+YL21r0qx77BY3Q7M+vzzaqzy/Xh3KV3HYG6aMKPxjt0+5WrZJ8m3ntOXkOQHIMoWCEYWXOsFQSVo0VfXbpPy5yQOgdf8WUjASVlWoxmmp0ayV4dR1SpfMUUFQ6mh1jnTPRnuIvnGcusJ8aVu9pi6KtZXnBxTInqWa3qxPe275yg1Kka6O2A4WTVUgkO083+nWAwAAAAAAHB5rnpUm1UqrfmcHRntr1x57m0m19j5wfMpc0FSS3lmm937gCZx+ZbOGmX0yJRhStXcYuWXJcjNKo4FOf4ZmjB0ADebme9q61OkJ7HV0RaRIlzzhP5+Kc3PjtpGk8tYOKVigOQkzK+26pJHnNsoNS0qxIGjuuYlDrRXXFCioDrVEg501mrXePI6zb2/A0qeX61Oem/O8XVGdJDM23XoAAAAAAIDBt/gRqWx934Klpl177H0sfsRcg+NBZoOmh1MkrGXuEHB3GLyRURo1pcwIrloqm2J26ocUQdVUgldUG+fj1D5NqE5lVwQl5avMu83CfElBFVzjD012veoLecZJtz7duZXnB7Ts8Yg/aO2pe5puPQAAAAAAwGAqedgeap8pDzxt7xPHl8wGTcdVa+xXKjR+gnQw8pze+sEsHTT7DIoazcq2h9yXJcpw9NQz9S2JAqx9EcyVN1c1Jj4D1SsSrRnqX7Kjw+I91sxUviIKL43vX79NCk6f43u8ybJVXenW9+bcakLZ0fZlj0ekKWXq8ZQ6SLceAAAAAABgMCx+RFr7J7N14Nb+iYzT403mgqbjVmvcUk/AtLZA+98xOw2mck19sEMKhlQZDdDVqLPbU4c0yp7EaSCBvJpXuyTlKs8Yhl9XmJ8iA7VDXRGzLICcyaoSzzJv769NGxMEYe1SAG690WT7dvV3ffJzkxMgrY8rdRCTbj0AAAAAAEAmrHk2sxmmpgeepsbp8SQzQdNxqzVu6WIFg0cqYOpwJmIKXlEZna29PN+c9V6qCFcqFOxQU6LMzt5aVK9wJKhQbbuie17TrrIpUsd6e2KleM7ESkbmZV1HmfIjYdV7JmiS7NnsixPVGXUtalGHpPzCulid0yllvgBnRbhHltWuut6sT3tudgDVF2x2ztGepCrdegAAAAAAgMx7e59026Nma+bd9qh9LBz7Bh40HSoBU0d5fr065A1mlmtqoF4dnrqm1Vd0qT7gmfW+X2o0Kzug+m2eWqMLcxVeGvDMTh8LVFpWjx3IvWeWspeGJU/t0LKcsJY5M9h72RNARdT2iLnGZU+8pCkz7ce6aKoCS8PKXRirSep7rOnWpz03+7ns8tY9rQ1Jjy9zHnO69QAAAAAAAJl391OpJ30anmVp2tiILhjbE7dMHfu22T2pXXvsY+HYF5BkmY29V6ETKqs1IeGQ/Ni6dA7uCqu76nDVPwWOfZY1gNs6AyzL0qFDh3Tw4EEdOHBA2zvf0MenTTK7AQAAAACQEad+J3XQtHLSNt10SVDDhsXnD+7/4EP99NkP9O2O88xVCU04QXrrG2YrDrfnt76syXlnaPjw4Ro2bJiysrIUCATMbn1yXdF8jRgxUllZWRnINFWigCkA4LDYssqYuG2VWs0+atUqT5/itd0p1wfuNPfQrcb5A1mfWvfaYgXmN8p3VjsbVZz0nI3z9Syrtni6bVkVv1/gsHDviUT3o4dz/8bfk7butcWe6zvFvpJd677Xh2I17jQ7GPdugvvXfw7J+iW/JxMfF0igV+9nUuudxjXmvfZ3Nqo4wTVnb2Puz77+E95/xntQ3OJe/8nuvVT7TqtVqxI8BhxtkvwdjWvL97klwfreX0NJjme+PpvXa8aPl0x8/6TvL957td/nh+PR+vbUAVNJOm1sQONPydbJwZPjlrEnnaiiSQe1YspfzM0S2rXHPiaObQMMmtZoT1VAr38rUcDUXvfaLemX18kyBYA+a70zoECh1OKWw7AsdTW2aabvQ2mrVgVmqnJlS7TPspdzPR867fVtjV3O+i41vDDT96G09c5clV7gbt/39SntbNTikmajsVWrziqVoufUooKSXOOLRZEadsQet2VZsnY0qK0wwRcQ4HDbUq9SValqXqWqk94L3WqsrVTVyio1l9THBYe61xYrt0Sx63xHnqrjgj5O0Kaw0my1v2gWtsW2by1Q6Vne7bvVOD9XTXPd+yx2/8Z9qfa8frj3ZNUK8z5PcE9aliyrSSUTPd2ABHr3fmb3myn/9dhyQaly3XtjYkjF85rV6QvkdKvzhSIVzatU2Pf+0KnOdVJBXo630TaxRE3e+2KeVNXqua7vKDS3yBDnPdtsxlEmyd9xZ6OKfZ9vupRX6/nc4qwviF5riT7/JJLkeOpW43z/Z8CWC0qVG/3RqzeftxJJdrxkEvfPWdBkvF+0qEpSUWOZ7Dusv+eH49VjvYt1phDQgQMHVPzRg/rGP/RuZwM/Joa6AQZNAQBHxJZVmrmiSi3WcueDpS1nQZNaVjar9EE3CyasSlWpxfMFr3Bhg+QGaZz1yxa4XxpzVLK0Ss3rw3bQZGejqlcUqWGhu30f16fUrcalTSpYWeRv3tmpNhWp+FL3nAoVWim1dabZ48QSLetNP2CQtW6qVNHcMpXNLUp+L+wMq2ldlUJ3hFQlM5jTrfD6ZhU13h8LOE4s0bKV3iCskz1U2KYq8x6S1PpgqZpXLottP6NMDd6g0c6wmtZ57zPZ929tg4rWNSmcMnvIvieBjOjt+5laFV4hVc32BywL72jx3EM5yrtAqtzk+XlhZ1hNKtb9S6v87c77X2hGrOlIsrNhZ6ptZZXi72gcLVL9HbufbFLzvAbdb3zmqqy1f6hy15dFr8lClTUW+a9bQ6rjaUu9StcZnwHv8AT9+/F5K+XxEuhL/9Y7Z6rS+/z04/xwfHv2dbMlnpWijN2YMaN16mnjdXJwnG765AmaNb7L7BKnN8fE0Y2gKQAchVo3VUorQ74vmC7fB2JJmpenPG8HSVKbnYkzY7ks44tqd2db7B87O9WsAuV5M8Um5sWCKunWp9C9drGa5t6vMrPc7cQ8FahZTU/GgkPhFUmygYAhp1XhFfaXvJxLi5PeC91PNql5ZUiFzpfARF+KE13zzS93Rv8/r7FLltUUfw+pW50vSEWTvHe+EUxy7rNYQMoxsURNabNDWxVe4f2xBei/3r+f5SlvnqIBJk8vLbcsLXcCTYWzq6QXOqN9up9skuaGlDMxT0UrwtFs6+7OtqTHPSImNajLstS0MP4dG0eRdH/HC/IU98q5rlOdbublwyW+9Z0vm6NxDCmOl+rekvr5eSvF8RLqbX/3R/haz+Pvz/nhuPaX3WZLvECqWpcBKXtCUKecmq3sU05WcPh+s0ec3hwTRzeCpgBw1EkUEEliRkhV60q12Duc/sFSJf8I3qr6kmZVLfV8aDWDrhPzVOD9d7r1CbWqvqQgSdClUMutLhWvz3VqWFUrb0fsC3FSW1ZpphOsAo6U7rXVqpxXrNBENzs0QWDSvc+cjLnChQ0qWlHtGYaco9DcIlUW+uu6Va9w/yFJhSpJeP/EmF8s8yZ583wKtXxHg4pWzPTUkUtSn87Xx84aqnR/eIlqVulZ3j7OYg71B3z68H6mHJU83KKqdaXK9VxjcUN1Z4RU5fmxovPlZvtemBhSsSfbuvPl5l4eNw3jfOwlV6XrzI6pFS7wB8twdEr1d8y5tFhFK2Z6rlm7TEtScaN54qU6nmTfW746wL561H3/vJXueKbe9o8bHSH16/xwfNu912xJ7o3Xu/XCH9sTLm/3xNWeTKovx8TRiaApABzT7MCIStwPnAGFZ9s1o+LF6p8O9gfS1jtnSq3+DNeonY0qDuSqc6lb42qZOs8yi/8nCNAUVqqqNV2GHDCYnGH1c0PRL4mFs6skT3ablGBYsFOHMZZN4w5NrtRM9/peKi1rTDe4sY+8dRtbq2L3lRnojKtp2qWGeWYwOElNUyNrChgYO6vUsuw61kWSKgsDxiRPecqL1jW1s6Lte83+McIe2hvLCB+weXYmXfw9YnbEcW9iiZpaq5xrNqBAYLG01L6O40Trn3rKtPRDc0muwrM91+ULM2OB01593jocEpfeGDrnB+B4RtAUAI469jBb7zDdlHwTWlhaPrFTbeaQeu+EUeYEF86wsaidnfIM4E+53pwZddUWJyNUyQOziWp6LW81J8tJHKBJtk/gsNhSr9J19pdUbzBf8tYidTOLPAFRJyvNnBCq8A7P9f1widTHzDiz7lvKYZ4zljvHsjP56s3sPR+7Dl9cMBjosz6+n3lF39u61OCbdM0THN0SVqVneHLOpcXS+rC6d/rfB32ZeMkyroFMiL7WWvZEeepUszlixzNhVFOaEQXpFDV2eT4b+V+7e/d56zAwf0h0DJnzw1Fj/BizJbkzzszRBZ+YmnA5OXuc2T2pvhwTRyeCpgBwFEqYveboXlscnynmYX8I9XxA39mo4sBMtTV2xQdMJ+apyByGu7NTzdHhx6nXmzOjLp/h1NjyDPfNLWl2hjcmmBkcOIrY9ePMrExLLSvlmTzNnoApLui/o0FFcRNCefWllluiQJQ9DNrN5En+OmHXjTQDrgmZX/SBfuj1+9mWVUZGqSv+eneDo42bKv0/NEzMU8G6ToWjNYVtvh8o0tb0BTKndVOlv87pllUKnFWqglZrwAHTvElF/ftB4jBLW3sV6KWPjDdbksvU8Py+HBNHJ4KmAHA0mrHcGbrr/wLZvbZYub6apPYM29H6WTsbtdhcnyqbIa4mo50lFx1+nG59Av4vp5a6Gouc4Y32cH178hxvplurVhVWqqixjA/UGMKSDC+UU7PUqbFo/2jh/OjgNbFEyzwTQplBTXdW4VjGTWpxdVKdWZTdTJ6cBcvs2pC++naxfonrDbvS3+dAr/X2/WxGmRrmVWqmGexPVPdxYp4K1jWp6QVzCH6hQisrVeqpKQwcNjsbVezNZHZqsUev3Z2NKi6sVFVrZkbO5CxYpqpENVSdAOXQ+LyVvK7x0Dg/HE0uPNNsSe7QgYO+f48cNbJfmaZ9OSaOTgRNAeAoVXiHpa7GNs8Q34BySwrU4humbtc0bXPrZzkBUnd999pqVTo1r7zD6L3ZPIV3ODWw3GHEF7T4Aqzp1vfZxBI1ec/ZKRvQr30mmqDD/MINZIB9L8UPL5RiNUtLH/yJ6kv8NU+97Iw7O9CZs6BJLRfErt+ZK6rU0pf6oBNL1NRaEKv9W9imhh3eOsL2BBuxe9dZavOiP2BExU0Eleg+T1Bn2FmoP4d0evd+lqOShy3ffREIBBQ4q1PL4rJDCxVa2axmxf9AUTi7SlKRUaIGOAziXpf9tdjdiTpjNU+dJfq5xfghPK1CLbdapOj+7Nfu6KiitJ+3+nq8vvaXpE51rksyiiLt+QF+V37EbElu4jln+obk/0P+JLNLr/TlmDg6BSRZZiPw/7V377F1Xfe94H+HpPyKG8uvDOXQN2Ut39Y2FAcyJhGFZNDQ8T8FgmuTlW5FogPYSlHA+qdRVGQQ0RqMTAXoVHF6CzjTO4gczACkgAikgHpwB4VjtkB6SaWpmTiOraSWwzRSTCZ2bDkZ+RWSe/4455Dr7PMiLcri4/MBDmyvvc5e59B77cf3rL02a1uWXd5unWVZzM/Px9zcXMzOzsaLUy/H3Xe9twMRAAAANHPzlyNefTNfuuhvP/bjePDe380XV5mbm4u9w6/EyC8/kl+04KZrIl75Ur6U99uzz5+J2ztviba2tmhtbY2WlpYoFAr5astyf8/u2LTpimhpaTHSFAAAAIC17c8/ni+5dN7Ptrh8hKYAAACXwqkjVVNW1L71GoCL9ZefLI4Aref7v7oyfvLST+Pfp37W8PXij38SU29fm3/7gpuuKbbF+uf2fFiH3J4PAADARvPEMxF7T+ZLV9axByIeuidfyuXg9nwAAAAAaOKheyIe/kS+dOU8/AmB6UYiNAUAAABgXXj8sxF7PpovvXh7PlpcNxuH0BQAAACAdWN498qOOH34E8V1srEITQEAAABYVx7/bHH+0UYPh2rmpmuK6zDCdGMSmgIAAACw7jx0T8SZ/REH/3B54elN1xTfc2a/OUw3skJEXN7HbAMrLssub7fOsizm5+djbm4uZmdn48Wpl+Puu7bmqwEAAMD75uQLEd96KeKZn0e89FrEa28Vy2+4OuK2GyLu+XDEZ26LeODO/DtZjZ59/kzc3nlLtLW1RWtra7S0tEShUMhXW5b7e3bHpk1XFNclNIX1R2gKAAAArGeXOjR1ez4AAAAAQEJoCgAAAACQEJoCAAAAACSEpgAAAAAACaEpAAAAAEBCaAoAAAAAkBCaAgAAAAAkhKYAAAAAAAmhKQAAAABAohARWb4QWNuy7PJ26yzLYn5+Pubm5mJ2djZenHo57r5ra77aRXn2+TP5IgAAAGCVuhS5wO2dt0RbW1u0trZGS0tLFAqFfLVlub9nd2zadEVxXUJTWH82QmgKAAAAbFyXOjR1ez4AAAAAQEJoCgAAAACQuPjb81v2xZV7B+OGOzbHpiVGsG9+9yvxq6EDF9kwUI/b8wEAAID1bJXfnt8ZV/zPR+N/uGvpgWlExDX/4x/FFfnCBr5+Oovs9afjC/kFl8MTL0SWvRBfz5cDAAAAAOvCMqLOWvbFVXdclS9c3x66MwqFO+Nz+XIAAAAAYF24yNB0c8SV+TIAAAAAgLXrIkPTvKn45RcL8bO/qPH64nD8Ol99hX1h7PXIsmzh9fpY/ob+L8TTry8uz04/Xfzv0+nN9k3q5G7P/8LY65G9/nR8vaLt1+PpzyerLE8xUF7++tPx9GqacgAAAAAAWLDCoWlnfOivsvgPf1Pj9Vd98cF89RX09dNZHP10xNj+QhQKhSjsH4v49NEkOP1CPP360eieOVZcXjgQY+3d0b05XctS6tSwuTv2bhlZfM/5zdF9aDEQ/frpLPa2j8WBQvGzHZvpju4/yK0DAAAAAFgVVjg0vUwjTT//dPT+QcTpb1wf9361VPbVe2PwH8/H5k/vLY4KfWJvdG8+HcfuKM9G+pW49/BYnF9cy9Lq1JR7z8nTEZu3xx99vvzZzsfY4XvjK6Uan7vjWJxO3g0AAAAArB4rHJpeppGm27bE5jgf089VFn/lyck4H3fEzicivt51R8T56cqw8qv/LSaTRHQpdWrKvyfxhc9uj80xHVPlMDciIj4X4z9K/xsAAACAS+nkCxH7nozY8XcRN385ovWR4uvmLxfL9j1ZrAOx8qHp5ZQPJgEAAADYyN54O2LgW8VgtGc44mvfifjOuYhX34yYz4qvV98sln3tO8U6N3+5+J433s6vjY1kHYWmW6Iz9/ClouoRqAAAAACsb088E7H1sYgj/1QMRpfq1TeL79n6WHEdbEzrIzR9bjrOx+bYsq2yOL01/nMTpyM2b4k70gqf/6PYnjzkaSl1lqs4RUA+0P167PQgKAAAAIBLYt+TEXtPLi8szXv1zeI69j2ZX8JGcFlC03d/PB7v5gsvxlfvjZEfRdzx4OvxdDmc/PzTMfDpzXH+H4/F5yIiHjoWY+fviL2nv16q8IV4+lB3bI6I89OlGUmXUme5vnpvjPxoc3Qfejq+UCr6+um9xWB2Zmrh4VAAAAAAXLy+bxZvtV8pX/tOcZ1sLCsUmp6PX/3N78XP/qLQ5HUszkfE7C9OR5ZfRTObu+NolkWWe70+VowiP3dHIQ78Y0T3Y6Vlj3XH9DcKcX13OZb8Stx7/YEYa99beu/R2P69YzFW8ZCnpdRZvs/dUYhjM4uff28ci2MeBAUAAACwovY9GXH8B/nSi3f8B0acbjQXGZqej3gnX7byPndHIQqF2q/FUDTiK93XVyy786GK1ZRC0fS9EVs2R0z/NB3v2aTOQ3dGoXBncfRquc3r760cMfrQnVEoXB/3Jg+mqvgOd5yOzvaLGL0KAAAAQIUnnlnZEaZ5X/uOOU43kosMTR+Pt0+/HRGb48a/+En8h7/Jmrz2xuaIuPLOP4rW/KousS+MvR5Zlty+HxFfGOuNO+J0jJfC1aXUWbYnXogsy+KFJ9KyvdG9+XxMPunmfAAAAICL9cbbEV/8h3zpyvviPxTbYv27yNB0Kt79vw/EL54/H7+dzy9bXb7SfX0c+9Hmxdv3syyOfno6juVGjTars2wP3RkH/vF83PFgMq3Ag1tibH/lSFQAAAAA3pu//ufGD31qa8nirmvPx7ZrX6963XntG/nqdb36ZrEt1r9CxPKnFwVWtyy7vN06y7KYn5+Pubm5mJ2djRenXo6779qarwYAAAAr4uYvNw5NB7b+KP7sk5ujtbV6/OC77/w2/q9n3on/7fTv5RfVdNM1Ea98KV/K++3Z58/E7Z23RFtbW7S2tkZLS0sUCoV8tWW5v2d3bNp0RbS0tFzsSFMA3g8zx3sr53TePRwzDesciYnc8jg3HL3JOnqP59cwEUcuankjMzG8u/o9lZ+5N4bPJQtPHan8zrW+W6lOfr3l9qr/TqXyeuuDi7bUfjIRR/LbfKLcN46cyi/Jq923FtVYXq9vVfWXyu9S+cp99tz+ZWmfHao13fartt/KbXHi0UIUHs3t1UvbZ1U/OXWkwTGg1vGi2bZdo79F/jPX6veVfa3++lk76uzjc/vKqv/XTc/V6qnTXn4/nt/Pr3h7Oc3WX9Wfa9SJWHp7bGgnX2gcmEZEfOjaQtxw4/Vx3ebrql7X/s4HomfrXBz6g5fyb6vp1TeLbbK+CU0BVrXiBdiWk70xXZ7iI8tifFt/bEku9GaO98aWvoihs6U6ZzvjaHoheG44em/tj+0T5XWMx/a+LcnJ+kwM794Zk8PT73F5YzPH90X/iVzhqSOVn3lie/Tfmrt43TVU8b2zLIvp4cnYWf5uOw5GNjEYo337chfNW6I/hmL6m33RXi48Nxy9hS0x8kD5O6TrcyLOSlhqP5mII4WdMZAvXjARx/oiBg/3xMBj+SCzUs2+lai7vEbfGt/WH1vyF9TRs9hHK14j0ddRqnJuOHpvHYnetN7ZoZjsqnfxC/U02fZPHYlCV8R4ui1ObI/+WxfDp677BiOem8oFQ1Mxuqsn4uRYRfnM1GTErs7oTMryBheOm+X2BmOgq/Yxo2Z/OzccvV2TDY51xf3Bwn7j7FBM1lk/a0WdfXzpXCwWjhHT0flYEpw2PVerp057pWPSwOHxhe13fFt/bFn4UWEijlR8nottL2cJ32fiqYGqPjayZ+HMrVxrae2x4X1raVlnA4WYnZ2N3v84F1/6/aWt7OLbZLUTmgKsYjPH91WHfxHR9ch0DO0aiKPHZyJiJsZOjkbP8OOLIUZHXxw4XF4eMfPtkRjdNRR7dyysIfYO98TAU6UT51PHov/EYBxYOFFd5vJGzg3HvpPbY3BXZXHxYrU3usufeUd3DMZkTDW5UGzfc6Cy3o6DMX54dPEi9NSR2HmoJ4YeS/9mMzG8v3hhkD8Zb98zEuOHR2Pk21WX57A8S+gnE48WolDYGZOHB6NnoTTn1FgM7OqNvQ/2Rs+JkRir1yfq9K0FzZbndD0yHUPRH/uWGXQW9y9JX47iPujx4Z4YzYVU0FCTbX/iqYGIw93RlRbuOBjjh2Oxn3V0Vr134qmBGNz/ePRGWl46dj7QXXF8bWpHdwzmy6J+f5v4Rn+MHj6weHzesTeGdg3EWDk4OjUWA5HsNzq6o3eXY9Ja1WgfXz4Xe3zhGNEeffsHF34gaHquVkOj9srHpPFHFntM1yNZZOX/PjcVk9ETvZ9aPGZ1H46YnKq/7TVsL6f595mJqed6ojM9duQspz145uf5kmpZg2nsrr76qrj5QzfEdZs/GH/28Wvi3hum81WqLKVN1jahKcCq1eiCrj36vln5a/z2zupao2emIkrBYJYLXqfOjC78e63RNu2d2yMOjcXEEpbXNxPD+0ei97G9VSN52ju3R6QXtqfGYiC2Nzx5rqfrkfEYjIE4+uiR6O0aiMGJZBRcRMS5sRipCLMqdT1Sa2QDLM+S+snW4gjPkQfzPWLRxFMDxX7fMDyp37eKmi2vpT26H+hZ2G8sVbEv98ex3OikWvsdaKTZtt+5tSfi0NGqUZgVQVDpvYs/wE3E2KHB6N7RHp3b0nVOxdSJNDBaolNjMZCGoBEN+ttMTD0X0bO1Yq8QnduSkHfHwciyg4tB8LmxGHkvn4vVodk+fltn9T7xxFRM1dlnpudqNTVor+aPDKmOztgeaZ+YiLFDtc8nFzRoL6/59yl+75FbG9yav4z24KXX8iXVCo3muixEXH/T5rjx5uvj+huvi81t7+ZrVFlKm6xtQlOAVWsqpk40OXmNWAg6Broqb8c/eqiyVoVzw3H0UE8MPZicSudP5Ds6K3/Vb7a8llPHon9b/uKyZMfByM72Lp4sP9YZ0+mFYx0Tj+6MgfyotuiKgxODMXpoIEYPj8fBhVENJeemYrTJLZiwIpr0k649TULEUt8sBibFUUijfceqf5xo1LdiCcvraO/cnru1eTT6kwvamvPi7TgY08M9MdBVZzksxRK2/fKdARXbZH7+0vIxsRxKnpuKydL+v+u+wcXRz+emYnIJP9RVbNeFQhS6Bqpv/2/S3/LH8c6ttY6epbknb+2PSO8cYU1ptI9v/1Rv9BzaWTn10WMNbjqvda6W06i9iGJgXxytWau/dMXBbDp6T24pLT8anWez6nOoRLP2Gsp/n3NTMXlitOr2/TQ4vaj22HBeeytfUt/LP5+J577/Qs3XG6//Ol+9ruW0ydokNAVYB4oXkgOxs3xSvD/iwHCti7LiSWtxTq1LfVE2EUe6ouK2sNTM8d4o3DoVB8rzWO2fii35uUVP9MeW9GK1UIidhwZjvMbotYmnShceTUe/Fi3l4Vrwfqu61X1HdwxGcitvRNO+1Xz5ctSZ0zTXB9v3jCzOmXd4se9WjRqCOpa27ZdGlZbmgxzaFRGHdkYh90CdNPyf+fZIRPmOjR3dMVga1Tfz7ZEYbTQKryQ/32J2dih6KkZWr1R/64qDpTYOnNlSIwxmzevoi5GJwSSI3xexf6j2D9ArdK422rclxu5L+sxzOxe3rdJc71P7y8sPxNStl2i/Xev7dPTFSJaGtKUfwGv9UAhwmQhNAVatzujc1XhuqdTihWQx0Igzo7lbAtOT1uq5PatGzpybioqbwhosrxjFUAo+Jx7dGTFRb+RoeR7WvYvLy3OTfiM5Va7xsJqK2xjLyvOYni3O9bozf7HZ0Rk9pQvlsjTkma4XMMNyNegnzU3Esb7R3I8FxYdfpA/Fady3mi9vZGZqsnq07DIt7Itc/LJkS9v2KxWnqSnvwyvqLYSjMzF2MnJzNhaD2Kn0GJl7wnfDwLKjLw4kc6gupb/lj+PNbrnuum9wyT8AssbsOJicz4xEX9S4E6bRudoy9QxPJ6FkcQT3wtRLNeYcvSSh5XK+z1LuYoI6brg6X1LfLR9uj20fu7Pm67rrP5ivXtdy2mRtEpoCrFql+QXrPEhl4tFGF3Y15qU6dSQKpaeY5k9ai3MSVoaKM1OTC3NhNVteEdhmI9HXUWx/cTTFlug/URzxUP8zv0fnhqO3a6D0IKz26HtsKHoO7awcKdHRHb0LD86CS6NZP2mq9ECYiieDl8LHxfl/m/WtZssbKf2Ykf+xpaGZGN5dZ2RSR2f0LOHhbrDUbf9IbkRpWXXfK4Wjx8di5ETlLfidW3ticmo4xhamAlgc8bbQ7hJGjRb7SbP+Vpy/tHKe4OI8p4P3FduYOd7rTocNbOKpgcofqhqcqy1X59blz1G94hp8n5rbvumUuAi33ZAvqW+lbs9fTpusXZmXl9f6el1u8/Pz2ezsbPbOO+9kFy5cyL7/wxfzVViy6WxoV2SxayibTkrHD0cW0ZMNnS3VGu6pqDN+OPees0NZT0Q2OFEuyCu20zO8sIZssKJ+s+XN5N9f+swxmI2XCyYGK75TNjFY9b2rlf4+hxfWUiwd7qlcV7b4N0g/Q5aV263+G8Py5bfzBv3k7FDWk9tGxw9Xb8tF+fUudVlWe3mdvlW138jGs8F8P6ql1Ify37P+94FK9beVyu235r691jZeqtuzq6d6vaVjQa0+UKm43vx2XavvLqrxWfL1JwYrj31V+4nif+e/D2tM/v97rbL8eU/Tc7UG8uvOshrbVu6cqaq9ZWx7NdvLqVp/TtXy/OdNLKU9NryH/z7L4mDj19+e+FH2m9fezk5/76VsfGxy4fWv//2H2W9ee3vhdf6VC1nvf/lp1fvzr4f/Pv8peL99/4cvZhcuXMjeeeedbHZ2Npufn89XWbb/9MCu7I9392e7/+RPMyNNAVa14u2H49sq5/bc+dxQTGeLT4hv3zNSUSc/7+fEN/pjtNYDLRZ+4W+Pvm8WJ+Av3xY5mb+lq+Hy5WvfMxLTw5OL87DWeup9QzMxvHtL9J8YrJpLrn3P4zG0azT6b00ejtXRFyMVDzwotztZnLOxxjypsDwX0U9KD28rjz6rVBp1vpK3TNaaLzjGa/SDOg+CSucr3XEwsrNDMZnbvxzdOr2kEXtscMvY9tv3jEQ2sT23TRbnZMyPYmv/VG/EidHq9XZ0R++uGg9tq6PquHlrf2xfzrGqoy9G0s/cNRlDZ9Pb+bviYEX/Ke438t+HdaBqW6g872l+rlZ/tHVtXXEwG49IR0JvG1/cL3f0xUhu2xs4PJ5se8ttr7J+0+9To/0lHzOhhs/cli+pr+MjH664Jf/379iar7Iky2mTtalQGpkGrCNZdnm7dZZlMT8/H3NzczE7OxsvTr0cd9/13g5EAAAA0MzNX4549c186aK//diP48F7fzdfXGVubi72Dr8SI7/8SH7RgpuuiXjlS/lS3m/PPn8mbu+8Jdra2qK1tTVaWlqiUCjkqy3L/T27Y9OmK6KlpcWcpgAAAACsbX/+8XzJpfN+tsXlIzQFAAAAYE37y08WR4DW8/1fXRk/eemn8e9TP2v4evHHP4mpt6/Nv33BTdcU22L9c3s+rENuzwcAAGCjeeKZiL0n86Ur69gDEQ/dky/lcnB7PgAAAAA08dA9EQ9/Il+6ch7+hMB0IxGaAgAAALAuPP7ZiD0fzZdevD0fLa6bjUNoCgAAAMC6Mbx7ZUecPvyJ4jrZWISmAAAAAKwrj3+2OP9oo4dDNXPTNcV1GGG6MQlNAQAAAFh3Hron4sz+iIN/uLzw9KZriu85s98cphtZISIu72O2gRWXZZe3W2dZFvPz8zE3Nxezs7Px4tTLcfddW/PVAAAA4H1z8oWIb70U8czPI156LeK1t4rlN1wdcdsNEfd8OOIzt0U8cGf+naxGzz5/Jm7vvCXa2tqitbU1WlpaolAo5Ksty/09u2PTpiuK6xKawvojNAUAAADWs0sdmro9HwAAAAAgITQFAAAAAEgITQEAAAAAEkJTAAAAAICE0BQAAAAAICE0BQAAAABICE0BAAAAABJCUwAAAACAhNAUAAAAACBRiIgsXwisbVl2ebt1lmUxPz8fc3NzMTs7Gy9OvRx337U1X+2iPPv8mXwRAAAAsEpdilzg9s5boq2tLVpbW6OlpSUKhUK+2rLc37M7Nm26orguoSmsPxshNAUAAAA2rksdmro9HwAAAAAgITQFAAAAAEgITQEAAAAAEkJTAAAAAICE0BQAAAAAICE0BQAAAABICE0BAAAAABJCUwAAAACAhNAUAAAAACAhNAUAAABg3Tv5QsS+JyN2/F3EzV+OaH2k+Lr5y8WyfU8W60BERCEisnwhsLZl2eXt1lmWxfz8fMzNzcXs7Gy8OPVy3H3X1nw1AAAAuKTeeDvir/854r/+S8Srb+aX1nbTNRF//vGIv/xkxHVX5ZeyWjz7/Jm4vfOWaGtri9bW1mhpaYlCoZCvtiz39+yOTZuuiJaWFiNNAQAAAFh/nngmYutjEUf+aemBaUSx7pF/Kr73iWfyS9kohKYAAAAArCv7nozYe3J5YWneq28W17HvyfwSNgKhKQAAAADrRt83I772nXzpe/e17xTXycYiNAUAAABgXdj3ZMTxH+RLL97xHxhxutEITQEAAABY8554ZmVHmOZ97TvmON1IhKYAAAAArGlvvB3xxX/Il668L/5DsS3WP6EpAAAAAGvaX/9z44c+tbVkcde152Pbta9Xve689o189bpefbPYFuuf0BQAAACANe2//ku+pNL/8ns/jv/2x2/H//uff1v1+n/u///if73jJ/m31NWsLdYHoSnAGjBzvDcKhcLia/dwzDSscyQmcsvj3HD0JuvoPZ5fw0QcuajljczE8O7q91R+5t4YPpcsPHWk8jvX+m6lOvn1ltur/juVyuutD1baqSM1tsP89p3b9leibyyosc0/mqt16kiN99brQ8X9wJFTuXqN1g/LUN72F7exnKrtv7J/TDxaYxssHf+qjhU1t/2yGtt26VX3s9U51jXr76mZ4701+h1r30QcqfX/PnduVrVtNT13q6dOe7lzuaptbcXby7lk3xciTr7QeJRpRMSHri3EDTdeH9dtvq7qde3vfCB6ts7FoT94Kf+2ml59s9gm65vQFGBVK16AbTnZG9NZFlnpNb6tP7YkF3ozx3tjS1/E0NlSnbOdcTS9EDw3HL239sf2ifI6xmN735Zc8LEzJoen3+PyxmaO74v+E7nCU0cqP/PE9ui/NXfxumuo4ntnWRbTw5Oxs/zddhyMbGIwRvv25S6at0R/DMX0N/uivVx4bjh6C1ti5IHyd0jXt4QTfViuU0ei0DWQLy1ui12Tdbf9Yn/eHuPl7fS99I1Y3Ob7t41X1BuPnZVB0Y7uGIzJmKroA1MxdaInemIkxtLyc1MxGT3R2RGl/UK+T03H0HM7qy/EYUkm4lhfxODhnhh4rMY2dOpIFLpisW8s9I/F8KXrvsGI56ZyQdBUjO7qiTg5VlE+MzUZsaszOpOyvMGF42a5vcEY6Kp9zKh5rGvS3yucG459faP5Uta8iThS2BlVR4PSuVksnFtNR+djSZDY9Nytnjrtlc7lBg4vHhPGt/XHloUfGSbiSMXnudj2cpp93/fcPhR9a2lZZwOFmJ2djd7/OBdf+v2lrezi22S1E5oCrGIzx/dVh38R0fXIdAztGoijx2ciYibGTo5Gz/Dj0ddRqtDRFwcOl5dHzHx7JEZ3DcXeHQtriL3DPTHwVOlE+dSx6D8xGAf2lFtZ5vJGzg3HvpPbY3BXZXHxYrU3usufuWZwU619z4HKejsOxvjh0cWL0FNHYuehnhh6LP2bzcTw/uKJ+MjCdyhq3zMS44dHY+TbVZfn8B6VRvJ0Tcbg4Z78wpj4Rn+MHj6w2F937I2hXQMxdiqS/rw3uspvqFheX2XfWNzms0cW1hQREV2PZDF+eCB2Llwod0bnrlwfODUWA4cPxOMPREV5cV9S6rfnxmLkRE/0firtU+3R99hQ9JzIha2wFKfGYmBXb+x9sLfmNjTx1EDE4e7FvhHlY0AsHo86OqveO/HUQAzufzx6K34EKPW1B7orjq9N7eiOwXxZ1D/WNe7vqZkY3j8S22vsM1i7Jh4tRKGwMyYPD0b+/2z53OzxhfOS9ujbP7jwg0HTc7caGrVXPpcbT44JXY9ki8eI0o9ii/v0rug+HDE5Vf/8qGF7Oc2+73tpH1LP/DxfUi3LsnzRgquvvipu/tANcd3mD8afffyauPeG6XyVKktpk7VNaAqwajW6oGuPvm9mFQHg9s7qWqNnpiJKwWCWC16nziyOZqk12qa9c3vEobGYWMLy+ooXgb2P7a0aydPeuT0ivbA9NRYDsb00gm15uh4Zj8EYiKOPHoneroEYnBhZvECNcriThr6Vuh6p/FvCxeocno4sG4m9W/NLZmLquYierRW9KTq3lUOf6r5dHPWZ/OdS1Aw0F3U9OBQ9C/23Pbof6FnYX0Q5ZLqvK9o7t8doMjpv6kyyT+rojO0xGv3fyO0FOvpiJMv1QViCiacGittXR3f05oP8iOjc2hNx6GjVKM+K4Kf03sUf4CZi7NBgdO9oj85t6TqLo6nr9ZG6Sj8oVG7f9Y51zfr7opnj+2Lkgcdr7DNY07YW7woYeTB/FlSyrbP6HO/EVEwt4dytpgbt1fzRIVXapy/2kYkYO1T7/HJBg/ZqavB931P7kHjptXxJtUKhkC9aVIi4/qbNcePN18f1N14Xm9vezdeospQ2WduEpgCrVjEoaX6yWAw8Broqb8s9eqiyVoVzw3H0UE8MPZicOudPZDs6K0cNNFtey6lj0b8tf3FZsuNgZGd7Y+TW0txVj3XGdHaw/sl8ycSjO2MgHaEaERFdcXBiMEYPDcTo4fE4uDAqo+TcVIw2uQUTVk5X9DUJ4fP9unNr/d40c/xoDFSMNqqtom+cm4rRRj9CdHTG9mTEdvunepMQdSamnivdgr+jOwYXftwoBkCLn70rDp4dip5DO5c8XyPUVTouFUPM4gi00b5jFT/Mle8M6C8fNwo15i8tHxPLoeS5qZgs7f+77htc/BHg3FRMNuojJQNdSVuFQnHKjfzt/42OdUvq7xNxrG973R/2WLu69lSGnqnifndn5VRIjzW4yb3WuVtOo/YiigF+cXRorf7TFQez6eg9uaW0/Gh0ns2qz6kSzdpLNf++y28fUq+9lS+p7+Wfz8Rz33+h5uuN13+dr17XctpkbRKaAqwDxQvJgdhZPgneH3FgOH9RVrIwp1RyO/8lMRFHuqLiNrDUzPHeKNw6FQfK88Ttn4ot+cDlRH9sSS9WC4XYeWgwxnMjL6I8giJiCaNfi5bycC243BbmK66YbmJ5fWNJ0hD13FiMRPmHia7oPlwatVcasd2dXsB29MVIMtdjRCnQ0p9YpoqpH6J8G3z1bexdj5Tnd5yOoV0RUQrt03kP2zu3LwSbM98eiSiPjt7RHYOlUW0z3x6J0Uaj7kqq5jQ9OxQ9J/rjWDoPY4Nj3VJMPLozYqL5j4asMx19MTIxmATz+yL2D9X+QXqFzt1G+7bE2H1JH3pu52JwWpoHe2p/efmBmLp1BR/G1Oz7Xur2Ad4DoSnAqtUZnbuWPpfT4oVkFtk3+yLOjOZuCUxPuqvn9qwaOXNuKipuAmuwvGLUQin4bHwRWGvextLcpOmtvjUedpPVGo1ansf0bHGu18W5Gks6OqOnfPtXSfuekYV1TtcLmOESyffrWrdcLj7grcat7s36Rkdn9DSaI7hqlN1iOFoRMpVG5w08NdF8xPaOg6XPMR6DFaESNDMRx/pGcz8GFB8sU/OBUBELU1mU9+EV9RbC0ZkYOxm5ORKLQexUeozMPbG7evRqoqMvDiRzqDY+1hU17O+njsTOqHGHBBvDwn4ziywbib6osZ9tdO62TD3D08m2VhzRvTAVU405VA9OVI/4vigNvu/70j7r2g1X50vqu+XD7bHtY3fWfF13/Qfz1etaTpusTUJTgFWrNM9g7mm/ZROPNrqwqzEP1KkjUSg9hTV/0l2cX7QyVJyZmlyY+6rZ8orANhuJvo5i+4ujCbZE/4niCIf6n/k9OjccvV0DpQdhlR5Cc2hn5ciEju7oXXhwFlxOxfkM0/lDy7e9D963GLtMPFqILX3bY/y9zg1aZ07IsuLDaSpH2RXD0eEYOzlaue/o6Iye56ZiuDzfZKl45nhvnRGly/vBB4pzWg/GeP6HgInBZO7r4gPWaj1Ju/oYVQpHj4/FyInKW/A7t/bE5NRwjC1MBZAbMZ0l86M2UAxcmx3rmvf3iacGFkbLFgqF2LIQHidT7rBhTDw1UDkdUoNzt+Xq3Fo5d/VqUPV94SLcdkO+pL6Vuj1/OW2ydmVeXl7r63W5zc/PZ7Ozs9k777yTXbhwIfv+D1/MV2HJprOhXZHFrqFsOikdPxxZRE82dLZUa7inos744dx7zg5lPRHZ4ES5IK/YTs/wwhqywYr6zZY3k39/6TPHYDZeLpgYrPhO2cRg1feuVvr7HF5YS7F0uKdyXdni3yD9DFlWbrf6bwwrId83s6y8Lea29aQvVPWNvCX1jcVtPt8/ivuPGus/O5T17OrJeqqWlfpZvk+V9gP59ee/DzQzfrjGdpRlVceOmvv2GseXrFS3Z1dP9XrL/aJpHyqut+o4l++/FWp8lnz9Jv2j5j6DtS+/HdQqy58HNT13ayC/7iyrce6WO4eqaq9YP9+3aqrZXk6+TtPvu4z2Icuyh/8+y+Jg49ffnvhR9pvX3s5Of++lbHxscuH1r//9h9lvXnt74XX+lQtZ73/5adX786+H/z7/KXi/ff+HL2YXLlzI3nnnnWx2djabn5/PV1m2//TAruyPd/dnu//kTzMjTQFWteLth+PbKucv3PncUEwnI9Da94xU1MnPbTjxjf4YrfVAi4VRYu3R983x2N5Xnnx/Z0zmb+FquHz52veMxPTw5OI8rLWeet/QTAzv3hL9Jwar5pJr3/N4DO0ajf5bk5E6HX0xUvGAgXK7kzF0tjilgZEOvC86+mJkYvviw2y6JmPobPn23tJtypHMUVx6LXtet9I2P/Rc+qCmQuyM8drTXHR0R2+MVo1ALY96j6qH5hQf2pFf/1If6gYR5YfbVI60XlS646J0e277npHI0r5TKEShNAdifhRe+6d6I06MVq+3ozt6d9V4uGEdVcfNW/tj+3KOVQ37Oxta1bZReR7U/Nyt/ujr2rriYDYekY6M3ja+OLK6oy9Gzg7F5MLynTFweDzpW8ttL1e/yfdt3j409pnb8iX1dXzkwxW35P/+HVvzVZZkOW2yNhVKI9OAdSTLLm+3zrIs5ufnY25uLmZnZ+PFqZfj7rve24EIAAAAmrn5yxGvvpkvXfS3H/txPHjv7+aLq8zNzcXe4Vdi5JcfyS9acNM1Ea98KV/K++3Z58/E7Z23RFtbW7S2tkZLS0sUCoV8tWW5v2d3bNp0RbS0tJjTFAAAAIC17c8/ni+5dN7Ptrh8hKYAAAAArGl/+cniCNB6vv+rK+MnL/00/n3qZw1fL/74JzH19rX5ty+46ZpiW6x/bs+Hdcjt+QAAAGw0TzwTsfdkvnRlHXsg4qF78qVcDm7PBwAAAIAmHron4uFP5EtXzsOfEJhuJEJTAAAAANaFxz8bseej+dKLt+ejxXWzcQhNAQAAAFg3hnev7IjThz9RXCcbi9AUAAAAgHXl8c8W5x9t9HCoZm66prgOI0w3JqEpAAAAAOvOQ/dEnNkfcfAPlxee3nRN8T1n9pvDdCMrRMTlfcw2sOKy7PJ26yzLYn5+Pubm5mJ2djZenHo57r5ra74aAAAAvG9OvhDxrZcinvl5xEuvRbz2VrH8hqsjbrsh4p4PR3zmtogH7sy/k9Xo2efPxO2dt0RbW1u0trZGS0tLFAqFfLVlub9nd2zadEVxXUJTWH+EpgAAAMB6dqlDU7fnAwAAAAAkhKYAAAAAAAmhKQAAAABAQmgKAAAAAJAQmgIAAAAAJISmAAAAAAAJoSkAAAAAQEJoCgAAAACQEJoCAAAAACQKEZHlC4G1Lcsub7fOsizm5+djbm4uZmdn48Wpl+Puu7bmq12UZ58/ky8CAAAAVqlLkQvc3nlLtLW1RWtra7S0tEShUMhXW5b7e3bHpk1XFNclNIX1ZyOEpgAAAMDGdalDU7fnAwAAAAAkhKYAAAAAAAmhKQAAAABAQmgKAAAAAJAQmgIAAAAAJISmAAAAAAAJoSkAAAAAQEJoCgAAAACQEJoCAAAAACSEpgAAAAAACaEpAAAAAEBCaAoAAAAAkBCaApdcoRCRZVm+GAAAAGDZsiyLQiFfurKEpsAl19bWFu+8+9t8MQAAAMCyvfPub6OtrS1fvKKEpsAlUSgUolD62eeqKzfFr39zIV8FAAAAYNl+/ZsLcdWVmyJy+cNKEpoCl1ShUIjf+cBV8eqv3nCLPgAAAHBRsiyLV3/1RvzOB666JGFpmdAUuGTKv/ZcfdWVcdWVm+Lc9Cv5KgAAAABLdm76lbjqyk1x9VVXXrJRpiE0BS6V8o6rpaUlWlpa4sbrr4233no7zr78SyNOAQAAgGXJsizOvvzLeOutt+PG669dyBsuVXAqNAVWXHlnlQanra2t8aEbPxjvvvtunP63n8YvX3093n7nXQEqAAAAUFOWZfH2O+/GL199PU7/20/j3XffjQ/d+MFobW2tCkxXOjgtRITEAtaZ1RBElj/D/Px8zM3NxdzcXMzOzsbc3Fy89fY7ceGtd+Pdd2djdm4uVsHHBQAAAFaZQiGirbU1rriiLT5w9RVx9VVXRmtra7S1tUVra+tCeFqse/Gh6f09u2PTpiuKgazQFNaf1RCaRulzZFkW8/PzFeHp3NxczM/PLyxfLZ8XAAAAWD3KI0nTu1jTsDQ/2vRiCU1hnVtNIWQ+OM2/0s+6mj43AAAAcHmkIWj6vJT8ayUD0xCawvq32sLHdERpOShNR5oCAAAA1JKONE3/udKBaQhNYf1bjUFk+TOlAWpaBgAAAJAqh6JpSJqWrTShKaxzqzWETD9XvX8HAAAAiBq36df695UkNIV1bi2EkGvhMwIAAACrw6UKSlNCU1jnBJIAAAAAy5OGpi35hQAAAAAAG5nQFAAAAAAgITQFAAAAAEgITQEAAAAAEkJTAAAAAICE0BQAAAAAICE0BQAAAABICE0BAAAAABJCUwAAAACAhNAUAAAAACAhNAUAAAAASAhNAQAAAAASQlMAAAAAgITQFAAAAAAgITQFAAAAAEgITQEAAAAAEkJTAAAAAICE0BQAAAAAICE0BQAAAABICE0BAAAAABJCUwAAAACAhNAUAAAAACAhNAUAAAAASAhNAQAAAAASQlMAAAAAgITQFAAAAAAgITQFAAAAAEgITQEAAAAAEkJTAAAAAICE0BQAAAAAICE0BQAAAABICE0BAAAAABJCUwAAAACAhNAUAAAAACAhNAUAAAAASAhNAQAAAAASQlMAAAAAgITQFAAAAAAgITQFAAAAAEgITQEAAAAAEkJTAAAAAICE0BQAAAAAICE0BQAAAABICE0BAAAAABJCUwAAAACAhNAUAAAAACAhNAUAAAAASAhNAQAAAAASQlMAAAAAgITQFAAAAAAgITQFAAAAAEgITQEAAAAAEkJTAAAAAICE0BQAAAAAICE0BQAAAABICE0BAAAAABJCUwAAAACAhNAUAAAAACAhNAUAAAAASAhNAQAAAAASQlMAAAAAgITQFAAAAAAgITQFAAAAAEgITQEAAAAAEkJTAAAAAICE0BQAAAAAICE0BQAAAABICE0BAAAAABJCUwAAAACAhNAUAAAAACAhNAUAAAAASAhNAQAAAAASQlMAAAAAgITQFAAAAAAgITQFAAAAAEgITQEAAAAAEkJTAAAAAICE0BQAAAAAICE0BQAAAABICE0BAAAAABJCUwAAAACAhNAUAAAAACAhNAUAAAAASAhNAQAAAAASQlMAAAAAgITQFAAAAAAgITQFAAAAAEgITQEAAAAAEkJTAAAAAICE0BQAAAAAICE0BQAAAABICE0BAAAAABJCUwAAAACAhNAUAAAAACAhNAUAAAAASAhNAQAAAAASQlMAAAAAgITQFAAAAAAgITQFAAAAAEgITQEAAAAAEkJTAAAAAICE0BQAAAAAICE0BQAAAABICE0BAAAAABJCUwAAAACAhNAUAAAAACAhNAUAAAAASAhNAQAAAAASQlMAAAAAgITQFAAAAAAgITQFAAAAAEgITQEAAAAAEkJTAAAAAICE0BQAAAAAICE0BQAAAABICE0BAAAAABJCUwAAAACAhNAUAAAAACAhNAUAAAAASAhNAQAAAAASQlMAAAAAgITQFAAAAAAgITQFAAAAAEgITQEAAAAAEkJTAAAAAGDDKxQW/11oCgAAAACQEJoCAAAAABvab37zm8hicaip0BQAAAAA2NCef/6FKAhNAQAAAACKvvuv3zOnKQAAAABARMTs7GxMfm8yWgotUSglp0JTAAAAAGDD+qv//Stx/vwbEYWC0BQAAAAA2NhOnz4d//Ldf43WltZoaVmMSgsRkVXUBNa8LNOtAQAAAOrJsiz+j7/7P+NbT/9TFAoRLfnQ9JP/06ezX/7iF/HqK7+I8+dfj/n5+YoVAGuP0BQAAACg0oULF+Lf/u3F+MFzz8d3v/tM/Ozs2di0qS0KhZZoaVmczzQionB/z3/O5ufnYn4+iyyyKEQW8/MCFwAAAABgfWhpKUQWhShEIVpaCgsjS8thaRqYRkQUenf1ZWFkGgAAAACwASw87Ck3ujRV2P0nf5oJTAEAAACAjaJeWFpW2P0nfyoxBQAAAAAo+f8BgrU5tfJ0gPYAAAAASUVORK5CYII=;" vertex="1" parent="LNurGvQAs1YCEIJH9-UW-43">
          <mxGeometry x="37.54000000000002" y="20" width="210.06" height="100" as="geometry" />
        </mxCell>
        <mxCell id="LNurGvQAs1YCEIJH9-UW-44" value="" style="group" vertex="1" connectable="0" parent="1">
          <mxGeometry x="-280" y="422.81" width="350" height="130" as="geometry" />
        </mxCell>
        <mxCell id="LNurGvQAs1YCEIJH9-UW-45" value="" style="shape=image;verticalLabelPosition=bottom;labelBackgroundColor=default;verticalAlign=top;aspect=fixed;imageAspect=0;image=https://itk.co.th/media/com_eshop/products/resized/C9200-48P-A-700x700.jpg;clipPath=inset(44.33% 1% 45% 0%);" vertex="1" parent="LNurGvQAs1YCEIJH9-UW-44">
          <mxGeometry width="350" height="37.72229207831866" as="geometry" />
        </mxCell>
        <mxCell id="LNurGvQAs1YCEIJH9-UW-46" value="" style="shape=image;verticalLabelPosition=bottom;labelBackgroundColor=default;verticalAlign=top;aspect=fixed;imageAspect=0;image=https://itk.co.th/media/com_eshop/products/resized/C9200-48P-A-700x700.jpg;clipPath=inset(44.33% 1% 45% 0%);" vertex="1" parent="LNurGvQAs1YCEIJH9-UW-44">
          <mxGeometry y="43.333333333333336" width="350" height="37.72229207831866" as="geometry" />
        </mxCell>
        <mxCell id="LNurGvQAs1YCEIJH9-UW-47" value="" style="shape=image;verticalLabelPosition=bottom;labelBackgroundColor=default;verticalAlign=top;aspect=fixed;imageAspect=0;image=https://itk.co.th/media/com_eshop/products/resized/C9200-48P-A-700x700.jpg;clipPath=inset(44.33% 1% 45% 0%);" vertex="1" parent="LNurGvQAs1YCEIJH9-UW-44">
          <mxGeometry y="86.66666666666667" width="350" height="37.72229207831866" as="geometry" />
        </mxCell>
        <mxCell id="LNurGvQAs1YCEIJH9-UW-49" value="" style="shape=image;verticalLabelPosition=bottom;labelBackgroundColor=default;verticalAlign=top;aspect=fixed;imageAspect=0;image=https://upload.wikimedia.org/wikipedia/commons/thumb/0/08/Cisco_logo_blue_2016.svg/640px-Cisco_logo_blue_2016.svg.png;" vertex="1" parent="1">
          <mxGeometry x="-152.34000000000003" y="552.81" width="94.68" height="50" as="geometry" />
        </mxCell>
        <mxCell id="LNurGvQAs1YCEIJH9-UW-51" value="" style="sketch=0;aspect=fixed;pointerEvents=1;shadow=0;dashed=0;html=1;strokeColor=none;labelPosition=center;verticalLabelPosition=bottom;verticalAlign=top;align=center;fillColor=#00188D;shape=mxgraph.mscae.enterprise.database_generic" vertex="1" parent="1">
          <mxGeometry x="464.66" y="682.81" width="74" height="100" as="geometry" />
        </mxCell>
        <mxCell id="LNurGvQAs1YCEIJH9-UW-55" value="" style="endArrow=none;html=1;rounded=0;exitX=1;exitY=0.5;exitDx=0;exitDy=0;entryX=0.08;entryY=0.5;entryDx=0;entryDy=0;entryPerimeter=0;strokeColor=#FF8000;strokeWidth=5;" edge="1" parent="1" source="LNurGvQAs1YCEIJH9-UW-46" target="LNurGvQAs1YCEIJH9-UW-40">
          <mxGeometry width="50" height="50" relative="1" as="geometry">
            <mxPoint x="340" y="462.81" as="sourcePoint" />
            <mxPoint x="390" y="412.81" as="targetPoint" />
          </mxGeometry>
        </mxCell>
        <mxCell id="LNurGvQAs1YCEIJH9-UW-57" value="" style="shape=flexArrow;endArrow=classic;html=1;rounded=0;fillColor=#000000;" edge="1" parent="1">
          <mxGeometry width="50" height="50" relative="1" as="geometry">
            <mxPoint x="190" y="452.81" as="sourcePoint" />
            <mxPoint x="255.5" y="452.81" as="targetPoint" />
          </mxGeometry>
        </mxCell>
        <mxCell id="LNurGvQAs1YCEIJH9-UW-58" value="" style="shape=flexArrow;endArrow=classic;html=1;rounded=0;fillColor=#000000;" edge="1" parent="1">
          <mxGeometry width="50" height="50" relative="1" as="geometry">
            <mxPoint x="255" y="522.81" as="sourcePoint" />
            <mxPoint x="190" y="522.81" as="targetPoint" />
          </mxGeometry>
        </mxCell>
        <mxCell id="LNurGvQAs1YCEIJH9-UW-60" value="ส่งค่าต่าง ๆ&amp;nbsp;&lt;div&gt;เช่น Status , Uptime&amp;nbsp;&lt;/div&gt;" style="text;html=1;strokeColor=none;fillColor=none;align=center;verticalAlign=middle;whiteSpace=wrap;rounded=0;fontFamily=Kanit;fontSource=https%3A%2F%2Ffonts.googleapis.com%2Fcss%3Ffamily%3DKanit;fontSize=11;" vertex="1" parent="1">
          <mxGeometry x="160" y="400.00000000000006" width="120" height="30" as="geometry" />
        </mxCell>
        <mxCell id="LNurGvQAs1YCEIJH9-UW-61" value="ส่งคำสั่งตั้งค่าอุปกรณ์ไปยังอุปกรณ์" style="text;html=1;strokeColor=none;fillColor=none;align=center;verticalAlign=middle;whiteSpace=wrap;rounded=0;fontFamily=Kanit;fontSource=https%3A%2F%2Ffonts.googleapis.com%2Fcss%3Ffamily%3DKanit;fontSize=11;" vertex="1" parent="1">
          <mxGeometry x="130" y="540" width="180" height="30" as="geometry" />
        </mxCell>
        <mxCell id="LNurGvQAs1YCEIJH9-UW-64" value="" style="shape=flexArrow;endArrow=classic;html=1;rounded=0;fillColor=#000000;" edge="1" parent="1">
          <mxGeometry width="50" height="50" relative="1" as="geometry">
            <mxPoint x="450" y="682.81" as="sourcePoint" />
            <mxPoint x="420" y="602.81" as="targetPoint" />
          </mxGeometry>
        </mxCell>
        <mxCell id="LNurGvQAs1YCEIJH9-UW-65" value="" style="shape=flexArrow;endArrow=classic;html=1;rounded=0;fillColor=#000000;" edge="1" parent="1">
          <mxGeometry width="50" height="50" relative="1" as="geometry">
            <mxPoint x="600" y="602.81" as="sourcePoint" />
            <mxPoint x="550" y="682.81" as="targetPoint" />
          </mxGeometry>
        </mxCell>
        <mxCell id="LNurGvQAs1YCEIJH9-UW-66" value="&lt;font style=&quot;font-size: 22px;&quot;&gt;Database&lt;/font&gt;" style="text;html=1;strokeColor=none;fillColor=none;align=center;verticalAlign=middle;whiteSpace=wrap;rounded=0;fontFamily=Kanit;fontSource=https%3A%2F%2Ffonts.googleapis.com%2Fcss%3Ffamily%3DKanit;fontStyle=1" vertex="1" parent="1">
          <mxGeometry x="471.66" y="792.81" width="60" height="30" as="geometry" />
        </mxCell>
        <mxCell id="LNurGvQAs1YCEIJH9-UW-69" value="&lt;span style=&quot;font-size: 12px;&quot;&gt;เก็บ Template Command&lt;/span&gt;" style="text;html=1;strokeColor=none;fillColor=none;align=center;verticalAlign=middle;whiteSpace=wrap;rounded=0;fontFamily=Kanit;fontSource=https%3A%2F%2Ffonts.googleapis.com%2Fcss%3Ffamily%3DKanit;fontSize=11;" vertex="1" parent="1">
          <mxGeometry x="592.5" y="632.81" width="90" height="30" as="geometry" />
        </mxCell>
        <mxCell id="LNurGvQAs1YCEIJH9-UW-70" value="&lt;span style=&quot;font-size: 12px;&quot;&gt;เรียกใช้ Template&lt;/span&gt;" style="text;html=1;strokeColor=none;fillColor=none;align=center;verticalAlign=middle;whiteSpace=wrap;rounded=0;fontFamily=Kanit;fontSource=https%3A%2F%2Ffonts.googleapis.com%2Fcss%3Ffamily%3DKanit;fontSize=11;" vertex="1" parent="1">
          <mxGeometry x="330" y="642.81" width="90" height="30" as="geometry" />
        </mxCell>
        <mxCell id="LNurGvQAs1YCEIJH9-UW-71" value="" style="points=[[0.35,0,0],[0.98,0.51,0],[1,0.71,0],[0.67,1,0],[0,0.795,0],[0,0.65,0]];verticalLabelPosition=bottom;sketch=0;html=1;verticalAlign=top;aspect=fixed;align=center;pointerEvents=1;shape=mxgraph.cisco19.user;fillColor=#00188D;strokeColor=none;gradientColor=none;" vertex="1" parent="1">
          <mxGeometry x="910" y="390.00000000000006" width="150" height="150" as="geometry" />
        </mxCell>
        <mxCell id="LNurGvQAs1YCEIJH9-UW-73" value="" style="endArrow=classic;startArrow=classic;html=1;rounded=0;entryX=0;entryY=0.65;entryDx=0;entryDy=0;entryPerimeter=0;exitX=0.92;exitY=0.5;exitDx=0;exitDy=0;exitPerimeter=0;strokeWidth=3;strokeColor=#ff0000;" edge="1" parent="1" source="LNurGvQAs1YCEIJH9-UW-40" target="LNurGvQAs1YCEIJH9-UW-71">
          <mxGeometry width="50" height="50" relative="1" as="geometry">
            <mxPoint x="790" y="522.81" as="sourcePoint" />
            <mxPoint x="840" y="472.81" as="targetPoint" />
          </mxGeometry>
        </mxCell>
        <mxCell id="LNurGvQAs1YCEIJH9-UW-75" value="&lt;font style=&quot;font-size: 22px;&quot;&gt;Engineer&lt;/font&gt;" style="text;html=1;strokeColor=none;fillColor=none;align=center;verticalAlign=middle;whiteSpace=wrap;rounded=0;fontFamily=Kanit;fontSource=https%3A%2F%2Ffonts.googleapis.com%2Fcss%3Ffamily%3DKanit;fontStyle=1" vertex="1" parent="1">
          <mxGeometry x="940" y="552.81" width="60" height="30" as="geometry" />
        </mxCell>
        <mxCell id="LNurGvQAs1YCEIJH9-UW-76" value="" style="shape=flexArrow;endArrow=classic;html=1;rounded=0;fillColor=#000000;" edge="1" parent="1">
          <mxGeometry width="50" height="50" relative="1" as="geometry">
            <mxPoint x="740" y="452.81" as="sourcePoint" />
            <mxPoint x="805.5" y="452.81" as="targetPoint" />
          </mxGeometry>
        </mxCell>
        <mxCell id="LNurGvQAs1YCEIJH9-UW-77" value="" style="shape=flexArrow;endArrow=classic;html=1;rounded=0;fillColor=#000000;" edge="1" parent="1">
          <mxGeometry width="50" height="50" relative="1" as="geometry">
            <mxPoint x="800" y="538.8199999999999" as="sourcePoint" />
            <mxPoint x="735" y="538.8199999999999" as="targetPoint" />
          </mxGeometry>
        </mxCell>
        <mxCell id="LNurGvQAs1YCEIJH9-UW-78" value="&lt;font&gt;เรียกดูสถานะอุปกรณ์&lt;/font&gt;&lt;div&gt;&lt;font&gt;List อุปกรณ์เครือข่าย&lt;/font&gt;&lt;/div&gt;" style="text;html=1;strokeColor=none;fillColor=none;align=center;verticalAlign=middle;whiteSpace=wrap;rounded=0;fontFamily=Kanit;fontSource=https%3A%2F%2Ffonts.googleapis.com%2Fcss%3Ffamily%3DKanit;" vertex="1" parent="1">
          <mxGeometry x="720" y="392.81" width="110" height="30" as="geometry" />
        </mxCell>
        <mxCell id="LNurGvQAs1YCEIJH9-UW-81" value="&lt;font&gt;ส่งคำสั่งตั้งค่าอุปกรณ์&lt;/font&gt;" style="text;html=1;strokeColor=none;fillColor=none;align=center;verticalAlign=middle;whiteSpace=wrap;rounded=0;fontFamily=Kanit;fontSource=https%3A%2F%2Ffonts.googleapis.com%2Fcss%3Ffamily%3DKanit;" vertex="1" parent="1">
          <mxGeometry x="710" y="552.81" width="115" height="30" as="geometry" />
        </mxCell>
        <mxCell id="LNurGvQAs1YCEIJH9-UW-82" value="&lt;font&gt;Add Template&lt;/font&gt;" style="text;html=1;strokeColor=none;fillColor=none;align=center;verticalAlign=middle;whiteSpace=wrap;rounded=0;fontFamily=Kanit;fontSource=https%3A%2F%2Ffonts.googleapis.com%2Fcss%3Ffamily%3DKanit;" vertex="1" parent="1">
          <mxGeometry x="717.5" y="570" width="100" height="30" as="geometry" />
        </mxCell>
      </root>
    </mxGraphModel>
  </diagram>
</mxfile>
